<svg width="15" height="16" viewBox="0 0 15 16" fill="none" xmlns="http://www.w3.org/2000/svg">
<mask id="path-1-outside-1_124_136" maskUnits="userSpaceOnUse" x="0" y="0" width="15" height="16" fill="black">
<rect fill="white" width="15" height="16"/>
<path d="M2.053 7.4145L1.9555 3.729C1.9555 3.144 1.8905 2.6825 1.7605 2.3445C1.6305 2.0065 1.5655 1.8245 1.5655 1.7985C1.5655 1.5125 2.001 1.2915 2.872 1.1355C3.756 0.979499 4.4255 0.901499 4.8805 0.901499C5.3485 0.901499 5.602 1.012 5.641 1.233C6.46 4.886 7.149 7.421 7.708 8.838C7.773 8.994 7.838 9.072 7.903 9.072C7.981 9.072 8.046 9.0135 8.098 8.8965C8.969 6.4395 9.736 4.0085 10.399 1.6035C10.451 1.4475 10.581 1.3305 10.789 1.2525C10.997 1.1615 11.3545 1.077 11.8615 0.998999C12.3815 0.920999 12.895 0.881999 13.402 0.881999C13.909 0.881999 14.1625 0.985999 14.1625 1.194C14.1625 1.207 14.143 1.311 14.104 1.506C14.065 1.688 14.026 1.9155 13.987 2.1885C13.948 2.4615 13.9025 2.793 13.8505 3.183C13.7335 4.08 13.6555 5.1135 13.6165 6.2835C13.5905 7.4405 13.5775 8.604 13.5775 9.774L13.6165 11.8215C13.6165 12.7575 13.675 13.427 13.792 13.83C13.922 14.22 13.987 14.4475 13.987 14.5125C13.987 14.5645 13.9415 14.6295 13.8505 14.7075C13.4475 15.0325 12.8365 15.195 12.0175 15.195C11.4975 15.195 11.205 15.0195 11.14 14.6685C11.101 14.4865 11.0815 14.2005 11.0815 13.8105C11.0815 13.4075 11.1205 12.1855 11.1985 10.1445C11.2765 8.1035 11.3155 6.6215 11.3155 5.6985C11.3155 4.7625 11.2635 4.2945 11.1595 4.2945C11.1465 4.2945 11.14 4.301 11.14 4.314C11.14 4.314 11.1205 4.3205 11.0815 4.3335C11.0425 4.3465 10.9385 4.548 10.7695 4.938C10.6135 5.328 10.295 6.29 9.814 7.824C9.333 9.358 8.8975 10.7945 8.5075 12.1335C8.1175 13.4595 7.903 14.1745 7.864 14.2785C7.721 14.6295 7.448 14.805 7.045 14.805C6.85 14.805 6.694 14.7335 6.577 14.5905C6.161 12.6665 5.42 9.917 4.354 6.342L3.808 4.5675C3.782 4.5025 3.756 4.47 3.73 4.47C3.665 4.47 3.6195 4.5155 3.5935 4.6065C3.5415 5.4515 3.5155 7.1155 3.5155 9.5985C3.5155 12.0685 3.6065 13.6285 3.7885 14.2785C3.8015 14.3045 3.808 14.3435 3.808 14.3955C3.808 14.6685 3.5935 14.87 3.1645 15C2.7355 15.117 2.3455 15.1755 1.9945 15.1755C1.6565 15.1755 1.4875 15.0975 1.4875 14.9415C1.4875 14.9285 1.52 14.8245 1.585 14.6295C1.78 13.9665 1.9035 13.0045 1.9555 11.7435C2.0205 10.4825 2.053 9.0395 2.053 7.4145Z"/>
</mask>
<path d="M2.053 7.4145L1.9555 3.729C1.9555 3.144 1.8905 2.6825 1.7605 2.3445C1.6305 2.0065 1.5655 1.8245 1.5655 1.7985C1.5655 1.5125 2.001 1.2915 2.872 1.1355C3.756 0.979499 4.4255 0.901499 4.8805 0.901499C5.3485 0.901499 5.602 1.012 5.641 1.233C6.46 4.886 7.149 7.421 7.708 8.838C7.773 8.994 7.838 9.072 7.903 9.072C7.981 9.072 8.046 9.0135 8.098 8.8965C8.969 6.4395 9.736 4.0085 10.399 1.6035C10.451 1.4475 10.581 1.3305 10.789 1.2525C10.997 1.1615 11.3545 1.077 11.8615 0.998999C12.3815 0.920999 12.895 0.881999 13.402 0.881999C13.909 0.881999 14.1625 0.985999 14.1625 1.194C14.1625 1.207 14.143 1.311 14.104 1.506C14.065 1.688 14.026 1.9155 13.987 2.1885C13.948 2.4615 13.9025 2.793 13.8505 3.183C13.7335 4.08 13.6555 5.1135 13.6165 6.2835C13.5905 7.4405 13.5775 8.604 13.5775 9.774L13.6165 11.8215C13.6165 12.7575 13.675 13.427 13.792 13.83C13.922 14.22 13.987 14.4475 13.987 14.5125C13.987 14.5645 13.9415 14.6295 13.8505 14.7075C13.4475 15.0325 12.8365 15.195 12.0175 15.195C11.4975 15.195 11.205 15.0195 11.14 14.6685C11.101 14.4865 11.0815 14.2005 11.0815 13.8105C11.0815 13.4075 11.1205 12.1855 11.1985 10.1445C11.2765 8.1035 11.3155 6.6215 11.3155 5.6985C11.3155 4.7625 11.2635 4.2945 11.1595 4.2945C11.1465 4.2945 11.14 4.301 11.14 4.314C11.14 4.314 11.1205 4.3205 11.0815 4.3335C11.0425 4.3465 10.9385 4.548 10.7695 4.938C10.6135 5.328 10.295 6.29 9.814 7.824C9.333 9.358 8.8975 10.7945 8.5075 12.1335C8.1175 13.4595 7.903 14.1745 7.864 14.2785C7.721 14.6295 7.448 14.805 7.045 14.805C6.85 14.805 6.694 14.7335 6.577 14.5905C6.161 12.6665 5.42 9.917 4.354 6.342L3.808 4.5675C3.782 4.5025 3.756 4.47 3.73 4.47C3.665 4.47 3.6195 4.5155 3.5935 4.6065C3.5415 5.4515 3.5155 7.1155 3.5155 9.5985C3.5155 12.0685 3.6065 13.6285 3.7885 14.2785C3.8015 14.3045 3.808 14.3435 3.808 14.3955C3.808 14.6685 3.5935 14.87 3.1645 15C2.7355 15.117 2.3455 15.1755 1.9945 15.1755C1.6565 15.1755 1.4875 15.0975 1.4875 14.9415C1.4875 14.9285 1.52 14.8245 1.585 14.6295C1.78 13.9665 1.9035 13.0045 1.9555 11.7435C2.0205 10.4825 2.053 9.0395 2.053 7.4145Z" fill="url(#paint0_linear_124_136)"/>
<path d="M2.053 7.4145L2.55317 7.4145L2.55283 7.40128L2.053 7.4145ZM1.9555 3.729L1.45533 3.729L1.45567 3.74222L1.9555 3.729ZM1.7605 2.3445L2.22717 2.16501L2.22717 2.16501L1.7605 2.3445ZM2.872 1.1355L2.78511 0.643106L2.78385 0.643331L2.872 1.1355ZM5.641 1.233L5.14861 1.31989L5.1506 1.33119L5.15311 1.34238L5.641 1.233ZM7.708 8.838L7.2428 9.02152L7.24646 9.03031L7.708 8.838ZM8.098 8.8965L8.55491 9.09957L8.56278 9.08184L8.56926 9.06356L8.098 8.8965ZM10.399 1.6035L9.92466 1.44539L9.92049 1.4579L9.91698 1.47062L10.399 1.6035ZM10.789 1.2525L10.9646 1.72066L10.9771 1.71595L10.9894 1.71058L10.789 1.2525ZM11.8615 0.998999L11.7873 0.504527L11.7855 0.504813L11.8615 0.998999ZM14.104 1.506L14.5929 1.61077L14.5943 1.60406L14.104 1.506ZM13.987 2.1885L13.492 2.11779L13.492 2.11779L13.987 2.1885ZM13.8505 3.183L13.3549 3.11692L13.3547 3.11833L13.8505 3.183ZM13.6165 6.2835L13.1167 6.26684L13.1166 6.27227L13.6165 6.2835ZM13.5775 9.774L13.0774 9.774L13.0776 9.78352L13.5775 9.774ZM13.6165 11.8215L14.1166 11.8215L14.1164 11.812L13.6165 11.8215ZM13.792 13.83L13.3118 13.9694L13.3146 13.9788L13.3177 13.9881L13.792 13.83ZM13.8505 14.7075L14.1644 15.0967L14.1702 15.092L14.1759 15.0871L13.8505 14.7075ZM11.14 14.6685L11.6318 14.5774L11.6289 14.5637L11.14 14.6685ZM11.1985 10.1445L10.6989 10.1254L10.6989 10.1254L11.1985 10.1445ZM11.14 4.314L11.2981 4.78834L11.64 4.67438V4.314H11.14ZM11.0815 4.3335L10.9234 3.85916L10.9234 3.85916L11.0815 4.3335ZM10.7695 4.938L10.3107 4.7392L10.3079 4.74571L10.3053 4.7523L10.7695 4.938ZM9.814 7.824L9.3369 7.6744L9.3369 7.6744L9.814 7.824ZM8.5075 12.1335L8.98718 12.2746L8.98755 12.2733L8.5075 12.1335ZM7.864 14.2785L8.32723 14.4672L8.33217 14.4541L7.864 14.2785ZM6.577 14.5905L6.08829 14.6962L6.11375 14.8139L6.19002 14.9071L6.577 14.5905ZM4.354 6.342L4.83317 6.19912L4.83189 6.19496L4.354 6.342ZM3.808 4.5675L4.28589 4.42046L4.27986 4.40085L4.27224 4.3818L3.808 4.5675ZM3.5935 4.6065L3.11274 4.46914L3.09779 4.52147L3.09444 4.57579L3.5935 4.6065ZM3.7885 14.2785L3.30702 14.4133L3.31991 14.4593L3.34129 14.5021L3.7885 14.2785ZM3.1645 15L3.29611 15.4826L3.3095 15.4785L3.1645 15ZM1.585 14.6295L2.05934 14.7876L2.06216 14.7791L2.06468 14.7706L1.585 14.6295ZM1.9555 11.7435L1.45614 11.7178L1.45592 11.7229L1.9555 11.7435ZM2.55283 7.40128L2.45533 3.71578L1.45567 3.74222L1.55317 7.42772L2.55283 7.40128ZM2.4555 3.729C2.4555 3.11571 2.38858 2.58466 2.22717 2.16501L1.29383 2.52399C1.39242 2.78034 1.4555 3.17229 1.4555 3.729H2.4555ZM2.22717 2.16501C2.16261 1.99713 2.11557 1.87159 2.08512 1.78633C2.06969 1.74313 2.0601 1.71466 2.05493 1.69811C2.05221 1.6894 2.05232 1.68912 2.05362 1.69429C2.05426 1.69684 2.05632 1.70521 2.05848 1.71731C2.05982 1.72485 2.0655 1.75638 2.0655 1.7985H1.0655C1.0655 1.87101 1.0823 1.93214 1.08348 1.93683C1.08883 1.95825 1.09504 1.97909 1.10045 1.99639C1.11153 2.03184 1.12631 2.07487 1.14338 2.12267C1.17793 2.21941 1.22839 2.35386 1.29383 2.52399L2.22717 2.16501ZM2.0655 1.7985C2.0655 1.95165 1.94371 1.95277 2.11839 1.86412C2.27077 1.7868 2.54046 1.70284 2.96015 1.62767L2.78385 0.643331C2.33254 0.724163 1.94898 0.828701 1.66586 0.972374C1.40504 1.10473 1.0655 1.35935 1.0655 1.7985H2.0655ZM2.95889 1.62789C3.83617 1.47308 4.47066 1.4015 4.8805 1.4015V0.401499C4.38034 0.401499 3.67583 0.485921 2.78511 0.643108L2.95889 1.62789ZM4.8805 1.4015C4.97885 1.4015 5.05629 1.40737 5.11559 1.41646C5.17578 1.42567 5.2084 1.43687 5.22183 1.44272C5.23456 1.44827 5.21896 1.4441 5.19661 1.41878C5.17136 1.39016 5.15458 1.35375 5.14861 1.31989L6.13339 1.14611C6.07782 0.831201 5.86111 0.630508 5.62142 0.526026C5.40252 0.430608 5.14211 0.401499 4.8805 0.401499V1.4015ZM5.15311 1.34238C5.97197 4.99476 6.66804 7.56433 7.24288 9.02149L8.17312 8.65451C7.62996 7.27767 6.94803 4.77724 6.12889 1.12362L5.15311 1.34238ZM7.24646 9.03031C7.28724 9.12818 7.3426 9.23904 7.42139 9.33359C7.49545 9.42246 7.6551 9.572 7.903 9.572V8.572C8.0859 8.572 8.18055 8.68254 8.18961 8.69341C8.2034 8.70996 8.19376 8.70382 8.16954 8.64569L7.24646 9.03031ZM7.903 9.572C8.28758 9.572 8.47907 9.2702 8.55491 9.09957L7.64109 8.69343C7.63147 8.71509 7.63768 8.69076 7.67577 8.65648C7.69672 8.63762 7.72781 8.61541 7.76975 8.59826C7.81256 8.58074 7.85822 8.572 7.903 8.572V9.572ZM8.56926 9.06356C9.44408 6.5958 10.2147 4.1534 10.881 1.73638L9.91698 1.47062C9.25729 3.8636 8.49392 6.2832 7.62674 8.72944L8.56926 9.06356ZM10.8733 1.76161C10.8723 1.76467 10.8706 1.76822 10.8687 1.77116C10.8668 1.77396 10.8665 1.77357 10.87 1.7704C10.8778 1.76333 10.904 1.74339 10.9646 1.72066L10.6134 0.784334C10.317 0.895515 10.0397 1.10018 9.92466 1.44539L10.8733 1.76161ZM10.9894 1.71058C11.1326 1.64792 11.4334 1.57074 11.9375 1.49318L11.7855 0.504813C11.2756 0.583258 10.8614 0.675083 10.5886 0.79442L10.9894 1.71058ZM11.9357 1.49347C12.432 1.41901 12.9207 1.382 13.402 1.382V0.381999C12.8693 0.381999 12.331 0.422984 11.7873 0.504531L11.9357 1.49347ZM13.402 1.382C13.5128 1.382 13.6002 1.38775 13.667 1.39689C13.7355 1.40626 13.7705 1.41761 13.7826 1.42258C13.7954 1.42785 13.7636 1.418 13.7269 1.3728C13.6835 1.31936 13.6625 1.2525 13.6625 1.194H14.6625C14.6625 1.0315 14.6098 0.873636 14.503 0.742204C14.4029 0.619003 14.2761 0.54415 14.1622 0.497415C13.9438 0.407823 13.6747 0.381999 13.402 0.381999V1.382ZM13.6625 1.194C13.6625 1.16956 13.6644 1.15105 13.6648 1.14775C13.6654 1.14127 13.666 1.13679 13.6662 1.13558C13.6665 1.13307 13.6665 1.13351 13.6656 1.13861C13.664 1.14831 13.6611 1.16479 13.6564 1.18961C13.6473 1.23861 13.6331 1.31103 13.6137 1.40794L14.5943 1.60406C14.6139 1.50597 14.629 1.42889 14.6393 1.37389C14.6444 1.34671 14.6488 1.32256 14.652 1.30301C14.6536 1.29349 14.6554 1.28215 14.657 1.2707C14.6571 1.26992 14.6625 1.23453 14.6625 1.194H13.6625ZM13.6151 1.40123C13.5728 1.59847 13.532 1.83824 13.492 2.11779L14.482 2.25921C14.52 1.99276 14.5572 1.77753 14.5929 1.61076L13.6151 1.40123ZM13.492 2.11779C13.4527 2.39283 13.407 2.72596 13.3549 3.11692L14.3461 3.24908C14.398 2.86003 14.4433 2.53017 14.482 2.25921L13.492 2.11779ZM13.3547 3.11833C13.2351 4.03509 13.1562 5.08517 13.1168 6.26684L14.1162 6.30016C14.1548 5.14183 14.2319 4.12491 14.3463 3.24767L13.3547 3.11833ZM13.1166 6.27227C13.0905 7.43305 13.0775 8.6003 13.0775 9.774H14.0775C14.0775 8.6077 14.0905 7.44795 14.1164 6.29473L13.1166 6.27227ZM13.0776 9.78352L13.1166 11.831L14.1164 11.812L14.0774 9.76448L13.0776 9.78352ZM13.1165 11.8215C13.1165 12.7613 13.1735 13.4928 13.3118 13.9694L14.2722 13.6906C14.1765 13.3612 14.1165 12.7537 14.1165 11.8215H13.1165ZM13.3177 13.9881C13.3818 14.1804 13.4279 14.3269 13.4575 14.4305C13.4724 14.4826 13.4816 14.5188 13.4867 14.5417C13.4945 14.5766 13.487 14.556 13.487 14.5125H14.487C14.487 14.4365 14.4714 14.363 14.4629 14.3248C14.4518 14.2747 14.4366 14.2174 14.419 14.1558C14.3836 14.0318 14.3322 13.8696 14.2663 13.6719L13.3177 13.9881ZM13.487 14.5125C13.487 14.4521 13.5002 14.4042 13.5125 14.3727C13.5245 14.3418 13.5374 14.3219 13.5433 14.3135C13.5535 14.2989 13.5532 14.3038 13.5251 14.3279L14.1759 15.0871C14.2388 15.0332 14.3068 14.9666 14.3625 14.887C14.4151 14.8118 14.487 14.6821 14.487 14.5125H13.487ZM13.5366 14.3183C13.2613 14.5404 12.7847 14.695 12.0175 14.695V15.695C12.8883 15.695 13.6337 15.5246 14.1644 15.0967L13.5366 14.3183ZM12.0175 14.695C11.8043 14.695 11.7034 14.6574 11.6654 14.6346C11.6499 14.6254 11.6461 14.6195 11.6451 14.618C11.6437 14.6159 11.6368 14.6055 11.6316 14.5775L10.6484 14.7595C10.7056 15.0686 10.8753 15.3268 11.1509 15.4921C11.4054 15.6448 11.7107 15.695 12.0175 15.695V14.695ZM11.6289 14.5637C11.6016 14.4364 11.5815 14.1948 11.5815 13.8105H10.5815C10.5815 14.2062 10.6004 14.5366 10.6511 14.7733L11.6289 14.5637ZM11.5815 13.8105C11.5815 13.4195 11.6199 12.2096 11.6981 10.1636L10.6989 10.1254C10.6211 12.1614 10.5815 13.3955 10.5815 13.8105H11.5815ZM11.6981 10.1636C11.7762 8.12194 11.8155 6.63177 11.8155 5.6985H10.8155C10.8155 6.61123 10.7768 8.08506 10.6989 10.1254L11.6981 10.1636ZM11.8155 5.6985C11.8155 5.2263 11.8026 4.85276 11.7734 4.59028C11.7594 4.46377 11.7386 4.3338 11.7021 4.22414C11.6847 4.17189 11.6524 4.08877 11.5907 4.00947C11.527 3.92748 11.3847 3.7945 11.1595 3.7945V4.7945C10.9603 4.7945 10.8424 4.67615 10.8014 4.62341C10.7798 4.59563 10.7676 4.57238 10.762 4.56077C10.7561 4.54843 10.7536 4.54081 10.7534 4.54036C10.7531 4.53957 10.7542 4.54256 10.7561 4.55034C10.7579 4.55796 10.7603 4.56868 10.7629 4.58298C10.7683 4.61194 10.774 4.65068 10.7796 4.70072C10.8024 4.90624 10.8155 5.2347 10.8155 5.6985H11.8155ZM11.1595 3.7945C11.0759 3.7945 10.9214 3.81573 10.7913 3.94582C10.6612 4.07591 10.64 4.23043 10.64 4.314H11.64C11.64 4.38457 11.622 4.52934 11.4984 4.65293C11.3748 4.77652 11.2301 4.7945 11.1595 4.7945V3.7945ZM11.14 4.314C10.9819 3.83966 10.9819 3.83966 10.9819 3.83966C10.9819 3.83966 10.9819 3.83966 10.9819 3.83966C10.9819 3.83966 10.9819 3.83966 10.9819 3.83966C10.9819 3.83966 10.9819 3.83966 10.9819 3.83966C10.9819 3.83966 10.9819 3.83966 10.9819 3.83966C10.9819 3.83966 10.9819 3.83966 10.9819 3.83966C10.9819 3.83966 10.9819 3.83966 10.9819 3.83966C10.9819 3.83966 10.9819 3.83966 10.9819 3.83966C10.9819 3.83966 10.9819 3.83966 10.9819 3.83966C10.9819 3.83966 10.9819 3.83966 10.9819 3.83966C10.9819 3.83966 10.9819 3.83967 10.9819 3.83967C10.9819 3.83967 10.9819 3.83967 10.9819 3.83967C10.9819 3.83967 10.9819 3.83967 10.9819 3.83967C10.9819 3.83967 10.9818 3.83967 10.9818 3.83967C10.9818 3.83967 10.9818 3.83967 10.9818 3.83967C10.9818 3.83967 10.9818 3.83967 10.9818 3.83968C10.9818 3.83968 10.9818 3.83968 10.9818 3.83968C10.9818 3.83968 10.9818 3.83968 10.9818 3.83968C10.9818 3.83968 10.9818 3.83968 10.9818 3.83968C10.9818 3.83968 10.9818 3.83969 10.9818 3.83969C10.9818 3.83969 10.9818 3.83969 10.9818 3.83969C10.9818 3.83969 10.9818 3.83969 10.9818 3.83969C10.9818 3.83969 10.9818 3.83969 10.9818 3.8397C10.9818 3.8397 10.9818 3.8397 10.9818 3.8397C10.9818 3.8397 10.9818 3.8397 10.9818 3.8397C10.9817 3.8397 10.9817 3.83971 10.9817 3.83971C10.9817 3.83971 10.9817 3.83971 10.9817 3.83971C10.9817 3.83971 10.9817 3.83971 10.9817 3.83971C10.9817 3.83972 10.9817 3.83972 10.9817 3.83972C10.9817 3.83972 10.9817 3.83972 10.9817 3.83972C10.9817 3.83973 10.9817 3.83973 10.9817 3.83973C10.9817 3.83973 10.9817 3.83973 10.9817 3.83973C10.9817 3.83973 10.9817 3.83974 10.9816 3.83974C10.9816 3.83974 10.9816 3.83974 10.9816 3.83974C10.9816 3.83974 10.9816 3.83975 10.9816 3.83975C10.9816 3.83975 10.9816 3.83975 10.9816 3.83975C10.9816 3.83975 10.9816 3.83976 10.9816 3.83976C10.9816 3.83976 10.9816 3.83976 10.9816 3.83976C10.9816 3.83977 10.9816 3.83977 10.9816 3.83977C10.9815 3.83977 10.9815 3.83977 10.9815 3.83978C10.9815 3.83978 10.9815 3.83978 10.9815 3.83978C10.9815 3.83978 10.9815 3.83979 10.9815 3.83979C10.9815 3.83979 10.9815 3.83979 10.9815 3.83979C10.9815 3.8398 10.9815 3.8398 10.9815 3.8398C10.9815 3.8398 10.9814 3.83981 10.9814 3.83981C10.9814 3.83981 10.9814 3.83981 10.9814 3.83981C10.9814 3.83982 10.9814 3.83982 10.9814 3.83982C10.9814 3.83982 10.9814 3.83983 10.9814 3.83983C10.9814 3.83983 10.9814 3.83983 10.9814 3.83984C10.9813 3.83984 10.9813 3.83984 10.9813 3.83984C10.9813 3.83985 10.9813 3.83985 10.9813 3.83985C10.9813 3.83985 10.9813 3.83986 10.9813 3.83986C10.9813 3.83986 10.9813 3.83986 10.9813 3.83987C10.9813 3.83987 10.9812 3.83987 10.9812 3.83987C10.9812 3.83988 10.9812 3.83988 10.9812 3.83988C10.9812 3.83988 10.9812 3.83989 10.9812 3.83989C10.9812 3.83989 10.9812 3.8399 10.9812 3.8399C10.9812 3.8399 10.9811 3.8399 10.9811 3.83991C10.9811 3.83991 10.9811 3.83991 10.9811 3.83992C10.9811 3.83992 10.9811 3.83992 10.9811 3.83992C10.9811 3.83993 10.9811 3.83993 10.9811 3.83993C10.9811 3.83994 10.981 3.83994 10.981 3.83994C10.981 3.83995 10.981 3.83995 10.981 3.83995C10.981 3.83996 10.981 3.83996 10.981 3.83996C10.981 3.83996 10.981 3.83997 10.9809 3.83997C10.9809 3.83997 10.9809 3.83998 10.9809 3.83998C10.9809 3.83998 10.9809 3.83999 10.9809 3.83999C10.9809 3.83999 10.9809 3.84 10.9809 3.84C10.9808 3.84 10.9808 3.84001 10.9808 3.84001C10.9808 3.84001 10.9808 3.84002 10.9808 3.84002C10.9808 3.84002 10.9808 3.84003 10.9808 3.84003C10.9808 3.84004 10.9807 3.84004 10.9807 3.84004C10.9807 3.84005 10.9807 3.84005 10.9807 3.84005C10.9807 3.84006 10.9807 3.84006 10.9807 3.84006C10.9807 3.84007 10.9806 3.84007 10.9806 3.84008C10.9806 3.84008 10.9806 3.84008 10.9806 3.84009C10.9806 3.84009 10.9806 3.84009 10.9806 3.8401C10.9806 3.8401 10.9805 3.84011 10.9805 3.84011C10.9805 3.84011 10.9805 3.84012 10.9805 3.84012C10.9805 3.84012 10.9805 3.84013 10.9805 3.84013C10.9804 3.84014 10.9804 3.84014 10.9804 3.84014C10.9804 3.84015 10.9804 3.84015 10.9804 3.84016C10.9804 3.84016 10.9804 3.84017 10.9804 3.84017C10.9803 3.84017 10.9803 3.84018 10.9803 3.84018C10.9803 3.84019 10.9803 3.84019 10.9803 3.84019C10.9803 3.8402 10.9803 3.8402 10.9802 3.84021C10.9802 3.84021 10.9802 3.84022 10.9802 3.84022C10.9802 3.84022 10.9802 3.84023 10.9802 3.84023C10.9801 3.84024 10.9801 3.84024 10.9801 3.84025C10.9801 3.84025 10.9801 3.84025 10.9801 3.84026C10.9801 3.84026 10.9801 3.84027 10.98 3.84027C10.98 3.84028 10.98 3.84028 10.98 3.84029C10.98 3.84029 10.98 3.8403 10.98 3.8403C10.9799 3.8403 10.9799 3.84031 10.9799 3.84031C10.9799 3.84032 10.9799 3.84032 10.9799 3.84033C10.9799 3.84033 10.9798 3.84034 10.9798 3.84034C10.9798 3.84035 10.9798 3.84035 10.9798 3.84036C10.9798 3.84036 10.9798 3.84037 10.9797 3.84037C10.9797 3.84038 10.9797 3.84038 10.9797 3.84039C10.9797 3.84039 10.9797 3.8404 10.9797 3.8404C10.9796 3.84041 10.9796 3.84041 10.9796 3.84042C10.9796 3.84042 10.9796 3.84043 10.9796 3.84043C10.9796 3.84044 10.9795 3.84044 10.9795 3.84045C10.9795 3.84045 10.9795 3.84046 10.9795 3.84046C10.9795 3.84047 10.9794 3.84047 10.9794 3.84048C10.9794 3.84048 10.9794 3.84049 10.9794 3.84049C10.9794 3.8405 10.9794 3.8405 10.9793 3.84051C10.9793 3.84051 10.9793 3.84052 10.9793 3.84052C10.9793 3.84053 10.9793 3.84054 10.9792 3.84054C10.9792 3.84055 10.9792 3.84055 10.9792 3.84056C10.9792 3.84056 10.9792 3.84057 10.9791 3.84057C10.9791 3.84058 10.9791 3.84058 10.9791 3.84059C10.9791 3.8406 10.9791 3.8406 10.979 3.84061C10.979 3.84061 10.979 3.84062 10.979 3.84062C10.979 3.84063 10.979 3.84063 10.9789 3.84064C10.9789 3.84065 10.9789 3.84065 10.9789 3.84066C10.9789 3.84066 10.9789 3.84067 10.9788 3.84067C10.9788 3.84068 10.9788 3.84069 10.9788 3.84069C10.9788 3.8407 10.9787 3.8407 10.9787 3.84071C10.9787 3.84072 10.9787 3.84072 10.9787 3.84073C10.9787 3.84073 10.9786 3.84074 10.9786 3.84075C10.9786 3.84075 10.9786 3.84076 10.9786 3.84076C10.9786 3.84077 10.9785 3.84078 10.9785 3.84078C10.9785 3.84079 10.9785 3.84079 10.9785 3.8408C10.9784 3.84081 10.9784 3.84081 10.9784 3.84082C10.9784 3.84083 10.9784 3.84083 10.9783 3.84084C10.9783 3.84084 10.9783 3.84085 10.9783 3.84086C10.9783 3.84086 10.9783 3.84087 10.9782 3.84088C10.9782 3.84088 10.9782 3.84089 10.9782 3.84089C10.9782 3.8409 10.9781 3.84091 10.9781 3.84091C10.9781 3.84092 10.9781 3.84093 10.9781 3.84093C10.978 3.84094 10.978 3.84095 10.978 3.84095C10.978 3.84096 10.978 3.84097 10.9779 3.84097C10.9779 3.84098 10.9779 3.84099 10.9779 3.84099C10.9779 3.841 10.9778 3.84101 10.9778 3.84101C10.9778 3.84102 10.9778 3.84103 10.9778 3.84103C10.9777 3.84104 10.9777 3.84105 10.9777 3.84105C10.9777 3.84106 10.9777 3.84107 10.9776 3.84107C10.9776 3.84108 10.9776 3.84109 10.9776 3.84109C10.9776 3.8411 10.9775 3.84111 10.9775 3.84111C10.9775 3.84112 10.9775 3.84113 10.9775 3.84114C10.9774 3.84114 10.9774 3.84115 10.9774 3.84116C10.9774 3.84116 10.9773 3.84117 10.9773 3.84118C10.9773 3.84118 10.9773 3.84119 10.9773 3.8412C10.9772 3.84121 10.9772 3.84121 10.9772 3.84122C10.9772 3.84123 10.9772 3.84124 10.9771 3.84124C10.9771 3.84125 10.9771 3.84126 10.9771 3.84126C10.977 3.84127 10.977 3.84128 10.977 3.84129C10.977 3.84129 10.977 3.8413 10.9769 3.84131C10.9769 3.84132 10.9769 3.84132 10.9769 3.84133C10.9768 3.84134 10.9768 3.84135 10.9768 3.84135C10.9768 3.84136 10.9768 3.84137 10.9767 3.84138C10.9767 3.84138 10.9767 3.84139 10.9767 3.8414C10.9766 3.84141 10.9766 3.84141 10.9766 3.84142C10.9766 3.84143 10.9766 3.84144 10.9765 3.84144C10.9765 3.84145 10.9765 3.84146 10.9765 3.84147C10.9764 3.84147 10.9764 3.84148 10.9764 3.84149C10.9764 3.8415 10.9763 3.84151 10.9763 3.84151C10.9763 3.84152 10.9763 3.84153 10.9762 3.84154C10.9762 3.84155 10.9762 3.84155 10.9762 3.84156C10.9762 3.84157 10.9761 3.84158 10.9761 3.84158C10.9761 3.84159 10.9761 3.8416 10.976 3.84161C10.976 3.84162 10.976 3.84162 10.976 3.84163C10.9759 3.84164 10.9759 3.84165 10.9759 3.84166C10.9759 3.84167 10.9758 3.84167 10.9758 3.84168C10.9758 3.84169 10.9758 3.8417 10.9757 3.84171C10.9757 3.84171 10.9757 3.84172 10.9757 3.84173C10.9756 3.84174 10.9756 3.84175 10.9756 3.84176C10.9756 3.84176 10.9755 3.84177 10.9755 3.84178C10.9755 3.84179 10.9755 3.8418 10.9754 3.84181C10.9754 3.84181 10.9754 3.84182 10.9754 3.84183C10.9753 3.84184 10.9753 3.84185 10.9753 3.84186C10.9753 3.84187 10.9752 3.84187 10.9752 3.84188C10.9752 3.84189 10.9752 3.8419 10.9751 3.84191C10.9751 3.84192 10.9751 3.84193 10.9751 3.84193C10.975 3.84194 10.975 3.84195 10.975 3.84196C10.975 3.84197 10.9749 3.84198 10.9749 3.84199C10.9749 3.842 10.9748 3.842 10.9748 3.84201C10.9748 3.84202 10.9748 3.84203 10.9747 3.84204C10.9747 3.84205 10.9747 3.84206 10.9747 3.84207C10.9746 3.84208 10.9746 3.84208 10.9746 3.84209C10.9746 3.8421 10.9745 3.84211 10.9745 3.84212C10.9745 3.84213 10.9744 3.84214 10.9744 3.84215C10.9744 3.84216 10.9744 3.84217 10.9743 3.84218C10.9743 3.84218 10.9743 3.84219 10.9743 3.8422C10.9742 3.84221 10.9742 3.84222 10.9742 3.84223C10.9741 3.84224 10.9741 3.84225 10.9741 3.84226C10.9741 3.84227 10.974 3.84228 10.974 3.84229C10.974 3.8423 10.9739 3.8423 10.9739 3.84231C10.9739 3.84232 10.9739 3.84233 10.9738 3.84234C10.9738 3.84235 10.9738 3.84236 10.9737 3.84237C10.9737 3.84238 10.9737 3.84239 10.9737 3.8424C10.9736 3.84241 10.9736 3.84242 10.9736 3.84243C10.9735 3.84244 10.9735 3.84245 10.9735 3.84246C10.9735 3.84247 10.9734 3.84248 10.9734 3.84249C10.9734 3.84249 10.9733 3.8425 10.9733 3.84251C10.9733 3.84252 10.9733 3.84253 10.9732 3.84254C10.9732 3.84255 10.9732 3.84256 10.9731 3.84257C10.9731 3.84258 10.9731 3.84259 10.9731 3.8426C10.973 3.84261 10.973 3.84262 10.973 3.84263C10.9729 3.84264 10.9729 3.84265 10.9729 3.84266C10.9728 3.84267 10.9728 3.84268 10.9728 3.84269C10.9728 3.8427 10.9727 3.84271 10.9727 3.84272C10.9727 3.84273 10.9726 3.84274 10.9726 3.84275C10.9726 3.84276 10.9725 3.84277 10.9725 3.84278C10.9725 3.84279 10.9725 3.8428 10.9724 3.84281C10.9724 3.84282 10.9724 3.84283 10.9723 3.84284C10.9723 3.84285 10.9723 3.84286 10.9722 3.84287C10.9722 3.84289 10.9722 3.8429 10.9721 3.84291C10.9721 3.84292 10.9721 3.84293 10.972 3.84294C10.972 3.84295 10.972 3.84296 10.972 3.84297C10.9719 3.84298 10.9719 3.84299 10.9719 3.843C10.9718 3.84301 10.9718 3.84302 10.9718 3.84303C10.9717 3.84304 10.9717 3.84305 10.9717 3.84306C10.9716 3.84307 10.9716 3.84308 10.9716 3.8431C10.9715 3.84311 10.9715 3.84312 10.9715 3.84313C10.9714 3.84314 10.9714 3.84315 10.9714 3.84316C10.9713 3.84317 10.9713 3.84318 10.9713 3.84319C10.9713 3.8432 10.9712 3.84321 10.9712 3.84322C10.9712 3.84324 10.9711 3.84325 10.9711 3.84326C10.9711 3.84327 10.971 3.84328 10.971 3.84329C10.971 3.8433 10.9709 3.84331 10.9709 3.84332C10.9709 3.84333 10.9708 3.84334 10.9708 3.84336C10.9708 3.84337 10.9707 3.84338 10.9707 3.84339C10.9707 3.8434 10.9706 3.84341 10.9706 3.84342C10.9706 3.84343 10.9705 3.84344 10.9705 3.84346C10.9705 3.84347 10.9704 3.84348 10.9704 3.84349C10.9704 3.8435 10.9703 3.84351 10.9703 3.84352C10.9703 3.84353 10.9702 3.84355 10.9702 3.84356C10.9702 3.84357 10.9701 3.84358 10.9701 3.84359C10.9701 3.8436 10.97 3.84361 10.97 3.84363C10.9699 3.84364 10.9699 3.84365 10.9699 3.84366C10.9698 3.84367 10.9698 3.84368 10.9698 3.84369C10.9697 3.84371 10.9697 3.84372 10.9697 3.84373C10.9696 3.84374 10.9696 3.84375 10.9696 3.84376C10.9695 3.84378 10.9695 3.84379 10.9695 3.8438C10.9694 3.84381 10.9694 3.84382 10.9694 3.84383C10.9693 3.84385 10.9693 3.84386 10.9692 3.84387C10.9692 3.84388 10.9692 3.84389 10.9691 3.84391C10.9691 3.84392 10.9691 3.84393 10.969 3.84394C10.969 3.84395 10.969 3.84397 10.9689 3.84398C10.9689 3.84399 10.9689 3.844 10.9688 3.84401C10.9688 3.84402 10.9687 3.84404 10.9687 3.84405C10.9687 3.84406 10.9686 3.84407 10.9686 3.84409C10.9686 3.8441 10.9685 3.84411 10.9685 3.84412C10.9685 3.84413 10.9684 3.84415 10.9684 3.84416C10.9683 3.84417 10.9683 3.84418 10.9683 3.84419C10.9682 3.84421 10.9682 3.84422 10.9682 3.84423C10.9681 3.84424 10.9681 3.84426 10.9681 3.84427C10.968 3.84428 10.968 3.84429 10.9679 3.84431C10.9679 3.84432 10.9679 3.84433 10.9678 3.84434C10.9678 3.84436 10.9678 3.84437 10.9677 3.84438C10.9677 3.84439 10.9676 3.84441 10.9676 3.84442C10.9676 3.84443 10.9675 3.84444 10.9675 3.84446C10.9675 3.84447 10.9674 3.84448 10.9674 3.84449C10.9673 3.84451 10.9673 3.84452 10.9673 3.84453C10.9672 3.84454 10.9672 3.84456 10.9672 3.84457C10.9671 3.84458 10.9671 3.8446 10.967 3.84461C10.967 3.84462 10.967 3.84463 10.9669 3.84465C10.9669 3.84466 10.9668 3.84467 10.9668 3.84469C10.9668 3.8447 10.9667 3.84471 10.9667 3.84472C10.9666 3.84474 10.9666 3.84475 10.9666 3.84476C10.9665 3.84478 10.9665 3.84479 10.9665 3.8448C10.9664 3.84481 10.9664 3.84483 10.9663 3.84484C10.9663 3.84485 10.9663 3.84487 10.9662 3.84488C10.9662 3.84489 10.9661 3.84491 10.9661 3.84492C10.9661 3.84493 10.966 3.84495 10.966 3.84496C10.9659 3.84497 10.9659 3.84499 10.9659 3.845C10.9658 3.84501 10.9658 3.84503 10.9657 3.84504C10.9657 3.84505 10.9657 3.84507 10.9656 3.84508C10.9656 3.84509 10.9655 3.84511 10.9655 3.84512C10.9655 3.84513 10.9654 3.84515 10.9654 3.84516C10.9653 3.84517 10.9653 3.84519 10.9653 3.8452C10.9652 3.84521 10.9652 3.84523 10.9651 3.84524C10.9651 3.84525 10.9651 3.84527 10.965 3.84528C10.965 3.8453 10.9649 3.84531 10.9649 3.84532C10.9648 3.84534 10.9648 3.84535 10.9648 3.84536C10.9647 3.84538 10.9647 3.84539 10.9646 3.84541C10.9646 3.84542 10.9646 3.84543 10.9645 3.84545C10.9645 3.84546 10.9644 3.84547 10.9644 3.84549C10.9644 3.8455 10.9643 3.84552 10.9643 3.84553C10.9642 3.84554 10.9642 3.84556 10.9641 3.84557C10.9641 3.84559 10.9641 3.8456 10.964 3.84561C10.964 3.84563 10.9639 3.84564 10.9639 3.84566C10.9638 3.84567 10.9638 3.84568 10.9638 3.8457C10.9637 3.84571 10.9637 3.84573 10.9636 3.84574C10.9636 3.84576 10.9636 3.84577 10.9635 3.84578C10.9635 3.8458 10.9634 3.84581 10.9634 3.84583C10.9633 3.84584 10.9633 3.84586 10.9633 3.84587C10.9632 3.84588 10.9632 3.8459 10.9631 3.84591C10.9631 3.84593 10.963 3.84594 10.963 3.84596C10.9629 3.84597 10.9629 3.84598 10.9629 3.846C10.9628 3.84601 10.9628 3.84603 10.9627 3.84604C10.9627 3.84606 10.9626 3.84607 10.9626 3.84609C10.9626 3.8461 10.9625 3.84612 10.9625 3.84613C10.9624 3.84614 10.9624 3.84616 10.9623 3.84617C10.9623 3.84619 10.9622 3.8462 10.9622 3.84622C10.9622 3.84623 10.9621 3.84625 10.9621 3.84626C10.962 3.84628 10.962 3.84629 10.9619 3.84631C10.9619 3.84632 10.9618 3.84634 10.9618 3.84635C10.9618 3.84637 10.9617 3.84638 10.9617 3.8464C10.9616 3.84641 10.9616 3.84643 10.9615 3.84644C10.9615 3.84646 10.9614 3.84647 10.9614 3.84649C10.9614 3.8465 10.9613 3.84652 10.9613 3.84653C10.9612 3.84655 10.9612 3.84656 10.9611 3.84658C10.9611 3.84659 10.961 3.84661 10.961 3.84662C10.9609 3.84664 10.9609 3.84665 10.9609 3.84667C10.9608 3.84668 10.9608 3.8467 10.9607 3.84671C10.9607 3.84673 10.9606 3.84674 10.9606 3.84676C10.9605 3.84677 10.9605 3.84679 10.9604 3.84681C10.9604 3.84682 10.9604 3.84684 10.9603 3.84685C10.9603 3.84687 10.9602 3.84688 10.9602 3.8469C10.9601 3.84691 10.9601 3.84693 10.96 3.84694C10.96 3.84696 10.9599 3.84698 10.9599 3.84699C10.9598 3.84701 10.9598 3.84702 10.9597 3.84704C10.9597 3.84705 10.9597 3.84707 10.9596 3.84708C10.9596 3.8471 10.9595 3.84712 10.9595 3.84713C10.9594 3.84715 10.9594 3.84716 10.9593 3.84718C10.9593 3.84719 10.9592 3.84721 10.9592 3.84723C10.9591 3.84724 10.9591 3.84726 10.959 3.84727C10.959 3.84729 10.9589 3.84731 10.9589 3.84732C10.9588 3.84734 10.9588 3.84735 10.9588 3.84737C10.9587 3.84739 10.9587 3.8474 10.9586 3.84742C10.9586 3.84743 10.9585 3.84745 10.9585 3.84747C10.9584 3.84748 10.9584 3.8475 10.9583 3.84751C10.9583 3.84753 10.9582 3.84755 10.9582 3.84756C10.9581 3.84758 10.9581 3.84759 10.958 3.84761C10.958 3.84763 10.9579 3.84764 10.9579 3.84766C10.9578 3.84768 10.9578 3.84769 10.9577 3.84771C10.9577 3.84772 10.9576 3.84774 10.9576 3.84776C10.9575 3.84777 10.9575 3.84779 10.9574 3.84781C10.9574 3.84782 10.9573 3.84784 10.9573 3.84786C10.9572 3.84787 10.9572 3.84789 10.9571 3.84791C10.9571 3.84792 10.957 3.84794 10.957 3.84795C10.9569 3.84797 10.9569 3.84799 10.9568 3.848C10.9568 3.84802 10.9567 3.84804 10.9567 3.84805C10.9566 3.84807 10.9566 3.84809 10.9565 3.8481C10.9565 3.84812 10.9564 3.84814 10.9564 3.84815C10.9563 3.84817 10.9563 3.84819 10.9562 3.84821C10.9562 3.84822 10.9561 3.84824 10.9561 3.84826C10.956 3.84827 10.956 3.84829 10.9559 3.84831C10.9559 3.84832 10.9558 3.84834 10.9558 3.84836C10.9557 3.84837 10.9557 3.84839 10.9556 3.84841C10.9556 3.84843 10.9555 3.84844 10.9555 3.84846C10.9554 3.84848 10.9554 3.84849 10.9553 3.84851C10.9553 3.84853 10.9552 3.84854 10.9552 3.84856C10.9551 3.84858 10.9551 3.8486 10.955 3.84861C10.955 3.84863 10.9549 3.84865 10.9549 3.84867C10.9548 3.84868 10.9548 3.8487 10.9547 3.84872C10.9547 3.84873 10.9546 3.84875 10.9546 3.84877C10.9545 3.84879 10.9544 3.8488 10.9544 3.84882C10.9543 3.84884 10.9543 3.84886 10.9542 3.84887C10.9542 3.84889 10.9541 3.84891 10.9541 3.84893C10.954 3.84894 10.954 3.84896 10.9539 3.84898C10.9539 3.849 10.9538 3.84901 10.9538 3.84903C10.9537 3.84905 10.9537 3.84907 10.9536 3.84908C10.9536 3.8491 10.9535 3.84912 10.9534 3.84914C10.9534 3.84915 10.9533 3.84917 10.9533 3.84919C10.9532 3.84921 10.9532 3.84923 10.9531 3.84924C10.9531 3.84926 10.953 3.84928 10.953 3.8493C10.9529 3.84931 10.9529 3.84933 10.9528 3.84935C10.9528 3.84937 10.9527 3.84939 10.9526 3.8494C10.9526 3.84942 10.9525 3.84944 10.9525 3.84946C10.9524 3.84948 10.9524 3.84949 10.9523 3.84951C10.9523 3.84953 10.9522 3.84955 10.9522 3.84957C10.9521 3.84958 10.9521 3.8496 10.952 3.84962C10.9519 3.84964 10.9519 3.84966 10.9518 3.84968C10.9518 3.84969 10.9517 3.84971 10.9517 3.84973C10.9516 3.84975 10.9516 3.84977 10.9515 3.84979C10.9514 3.8498 10.9514 3.84982 10.9513 3.84984C10.9513 3.84986 10.9512 3.84988 10.9512 3.8499C10.9511 3.84991 10.9511 3.84993 10.951 3.84995C10.951 3.84997 10.9509 3.84999 10.9508 3.85001C10.9508 3.85002 10.9507 3.85004 10.9507 3.85006C10.9506 3.85008 10.9506 3.8501 10.9505 3.85012C10.9505 3.85014 10.9504 3.85015 10.9503 3.85017C10.9503 3.85019 10.9502 3.85021 10.9502 3.85023C10.9501 3.85025 10.9501 3.85027 10.95 3.85029C10.9499 3.8503 10.9499 3.85032 10.9498 3.85034C10.9498 3.85036 10.9497 3.85038 10.9497 3.8504C10.9496 3.85042 10.9496 3.85044 10.9495 3.85045C10.9494 3.85047 10.9494 3.85049 10.9493 3.85051C10.9493 3.85053 10.9492 3.85055 10.9492 3.85057C10.9491 3.85059 10.949 3.85061 10.949 3.85063C10.9489 3.85064 10.9489 3.85066 10.9488 3.85068C10.9488 3.8507 10.9487 3.85072 10.9486 3.85074C10.9486 3.85076 10.9485 3.85078 10.9485 3.8508C10.9484 3.85082 10.9484 3.85084 10.9483 3.85085C10.9482 3.85087 10.9482 3.85089 10.9481 3.85091C10.9481 3.85093 10.948 3.85095 10.9479 3.85097C10.9479 3.85099 10.9478 3.85101 10.9478 3.85103C10.9477 3.85105 10.9477 3.85107 10.9476 3.85109C10.9475 3.85111 10.9475 3.85113 10.9474 3.85115C10.9474 3.85116 10.9473 3.85118 10.9472 3.8512C10.9472 3.85122 10.9471 3.85124 10.9471 3.85126C10.947 3.85128 10.947 3.8513 10.9469 3.85132C10.9468 3.85134 10.9468 3.85136 10.9467 3.85138C10.9467 3.8514 10.9466 3.85142 10.9465 3.85144C10.9465 3.85146 10.9464 3.85148 10.9464 3.8515C10.9463 3.85152 10.9462 3.85154 10.9462 3.85156C10.9461 3.85158 10.9461 3.8516 10.946 3.85162C10.9459 3.85164 10.9459 3.85166 10.9458 3.85168C10.9458 3.8517 10.9457 3.85172 10.9456 3.85174C10.9456 3.85176 10.9455 3.85178 10.9455 3.8518C10.9454 3.85182 10.9453 3.85184 10.9453 3.85186C10.9452 3.85188 10.9452 3.8519 10.9451 3.85192C10.945 3.85194 10.945 3.85196 10.9449 3.85198C10.9449 3.852 10.9448 3.85202 10.9447 3.85204C10.9447 3.85206 10.9446 3.85208 10.9446 3.8521C10.9445 3.85212 10.9444 3.85214 10.9444 3.85216C10.9443 3.85218 10.9443 3.8522 10.9442 3.85222C10.9441 3.85224 10.9441 3.85226 10.944 3.85228C10.9439 3.8523 10.9439 3.85232 10.9438 3.85234C10.9438 3.85237 10.9437 3.85239 10.9436 3.85241C10.9436 3.85243 10.9435 3.85245 10.9435 3.85247C10.9434 3.85249 10.9433 3.85251 10.9433 3.85253C10.9432 3.85255 10.9431 3.85257 10.9431 3.85259C10.943 3.85261 10.943 3.85263 10.9429 3.85265C10.9428 3.85267 10.9428 3.8527 10.9427 3.85272C10.9426 3.85274 10.9426 3.85276 10.9425 3.85278C10.9425 3.8528 10.9424 3.85282 10.9423 3.85284C10.9423 3.85286 10.9422 3.85288 10.9421 3.8529C10.9421 3.85292 10.942 3.85295 10.942 3.85297C10.9419 3.85299 10.9418 3.85301 10.9418 3.85303C10.9417 3.85305 10.9416 3.85307 10.9416 3.85309C10.9415 3.85311 10.9415 3.85313 10.9414 3.85316C10.9413 3.85318 10.9413 3.8532 10.9412 3.85322C10.9411 3.85324 10.9411 3.85326 10.941 3.85328C10.9409 3.8533 10.9409 3.85333 10.9408 3.85335C10.9408 3.85337 10.9407 3.85339 10.9406 3.85341C10.9406 3.85343 10.9405 3.85345 10.9404 3.85347C10.9404 3.8535 10.9403 3.85352 10.9402 3.85354C10.9402 3.85356 10.9401 3.85358 10.94 3.8536C10.94 3.85362 10.9399 3.85365 10.9399 3.85367C10.9398 3.85369 10.9397 3.85371 10.9397 3.85373C10.9396 3.85375 10.9395 3.85378 10.9395 3.8538C10.9394 3.85382 10.9393 3.85384 10.9393 3.85386C10.9392 3.85388 10.9391 3.85391 10.9391 3.85393C10.939 3.85395 10.9389 3.85397 10.9389 3.85399C10.9388 3.85401 10.9388 3.85404 10.9387 3.85406C10.9386 3.85408 10.9386 3.8541 10.9385 3.85412C10.9384 3.85415 10.9384 3.85417 10.9383 3.85419C10.9382 3.85421 10.9382 3.85423 10.9381 3.85425C10.938 3.85428 10.938 3.8543 10.9379 3.85432C10.9378 3.85434 10.9378 3.85436 10.9377 3.85439C10.9376 3.85441 10.9376 3.85443 10.9375 3.85445C10.9374 3.85448 10.9374 3.8545 10.9373 3.85452C10.9372 3.85454 10.9372 3.85456 10.9371 3.85459C10.937 3.85461 10.937 3.85463 10.9369 3.85465C10.9368 3.85468 10.9368 3.8547 10.9367 3.85472C10.9366 3.85474 10.9366 3.85476 10.9365 3.85479C10.9364 3.85481 10.9364 3.85483 10.9363 3.85485C10.9362 3.85488 10.9362 3.8549 10.9361 3.85492C10.936 3.85494 10.936 3.85497 10.9359 3.85499C10.9358 3.85501 10.9358 3.85503 10.9357 3.85506C10.9356 3.85508 10.9356 3.8551 10.9355 3.85512C10.9354 3.85515 10.9354 3.85517 10.9353 3.85519C10.9352 3.85521 10.9351 3.85524 10.9351 3.85526C10.935 3.85528 10.9349 3.85531 10.9349 3.85533C10.9348 3.85535 10.9347 3.85537 10.9347 3.8554C10.9346 3.85542 10.9345 3.85544 10.9345 3.85547C10.9344 3.85549 10.9343 3.85551 10.9343 3.85553C10.9342 3.85556 10.9341 3.85558 10.9341 3.8556C10.934 3.85563 10.9339 3.85565 10.9338 3.85567C10.9338 3.85569 10.9337 3.85572 10.9336 3.85574C10.9336 3.85576 10.9335 3.85579 10.9334 3.85581C10.9334 3.85583 10.9333 3.85586 10.9332 3.85588C10.9332 3.8559 10.9331 3.85593 10.933 3.85595C10.9329 3.85597 10.9329 3.856 10.9328 3.85602C10.9327 3.85604 10.9327 3.85607 10.9326 3.85609C10.9325 3.85611 10.9325 3.85614 10.9324 3.85616C10.9323 3.85618 10.9322 3.85621 10.9322 3.85623C10.9321 3.85625 10.932 3.85628 10.932 3.8563C10.9319 3.85632 10.9318 3.85635 10.9318 3.85637C10.9317 3.85639 10.9316 3.85642 10.9315 3.85644C10.9315 3.85646 10.9314 3.85649 10.9313 3.85651C10.9313 3.85653 10.9312 3.85656 10.9311 3.85658C10.931 3.85661 10.931 3.85663 10.9309 3.85665C10.9308 3.85668 10.9308 3.8567 10.9307 3.85672C10.9306 3.85675 10.9305 3.85677 10.9305 3.8568C10.9304 3.85682 10.9303 3.85684 10.9303 3.85687C10.9302 3.85689 10.9301 3.85691 10.93 3.85694C10.93 3.85696 10.9299 3.85699 10.9298 3.85701C10.9298 3.85703 10.9297 3.85706 10.9296 3.85708C10.9295 3.85711 10.9295 3.85713 10.9294 3.85715C10.9293 3.85718 10.9293 3.8572 10.9292 3.85723C10.9291 3.85725 10.929 3.85727 10.929 3.8573C10.9289 3.85732 10.9288 3.85735 10.9287 3.85737C10.9287 3.8574 10.9286 3.85742 10.9285 3.85744C10.9285 3.85747 10.9284 3.85749 10.9283 3.85752C10.9282 3.85754 10.9282 3.85757 10.9281 3.85759C10.928 3.85761 10.9279 3.85764 10.9279 3.85766C10.9278 3.85769 10.9277 3.85771 10.9277 3.85774C10.9276 3.85776 10.9275 3.85778 10.9274 3.85781C10.9274 3.85783 10.9273 3.85786 10.9272 3.85788C10.9271 3.85791 10.9271 3.85793 10.927 3.85796C10.9269 3.85798 10.9268 3.85801 10.9268 3.85803C10.9267 3.85806 10.9266 3.85808 10.9265 3.8581C10.9265 3.85813 10.9264 3.85815 10.9263 3.85818C10.9262 3.8582 10.9262 3.85823 10.9261 3.85825C10.926 3.85828 10.926 3.8583 10.9259 3.85833C10.9258 3.85835 10.9257 3.85838 10.9257 3.8584C10.9256 3.85843 10.9255 3.85845 10.9254 3.85848C10.9254 3.8585 10.9253 3.85853 10.9252 3.85855C10.9251 3.85858 10.9251 3.8586 10.925 3.85863C10.9249 3.85865 10.9248 3.85868 10.9248 3.8587C10.9247 3.85873 10.9246 3.85875 10.9245 3.85878C10.9245 3.8588 10.9244 3.85883 10.9243 3.85885C10.9242 3.85888 10.9241 3.8589 10.9241 3.85893C10.924 3.85895 10.9239 3.85898 10.9238 3.859C10.9238 3.85903 10.9237 3.85905 10.9236 3.85908C10.9235 3.85911 10.9235 3.85913 10.9234 3.85916L11.2396 4.80784C11.2397 4.80782 11.2398 4.80779 11.2398 4.80777C11.2399 4.80774 11.24 4.80771 11.2401 4.80769C11.2401 4.80766 11.2402 4.80764 11.2403 4.80761C11.2404 4.80759 11.2404 4.80756 11.2405 4.80754C11.2406 4.80751 11.2407 4.80749 11.2407 4.80746C11.2408 4.80744 11.2409 4.80741 11.241 4.80739C11.241 4.80736 11.2411 4.80734 11.2412 4.80731C11.2413 4.80729 11.2414 4.80726 11.2414 4.80724C11.2415 4.80721 11.2416 4.80719 11.2417 4.80716C11.2417 4.80714 11.2418 4.80711 11.2419 4.80709C11.2419 4.80706 11.242 4.80704 11.2421 4.80701C11.2422 4.80699 11.2422 4.80696 11.2423 4.80694C11.2424 4.80691 11.2425 4.80689 11.2425 4.80686C11.2426 4.80684 11.2427 4.80681 11.2428 4.80679C11.2428 4.80677 11.2429 4.80674 11.243 4.80672C11.2431 4.80669 11.2431 4.80667 11.2432 4.80664C11.2433 4.80662 11.2434 4.80659 11.2434 4.80657C11.2435 4.80654 11.2436 4.80652 11.2437 4.80649C11.2437 4.80647 11.2438 4.80645 11.2439 4.80642C11.2439 4.8064 11.244 4.80637 11.2441 4.80635C11.2442 4.80632 11.2442 4.8063 11.2443 4.80627C11.2444 4.80625 11.2445 4.80623 11.2445 4.8062C11.2446 4.80618 11.2447 4.80615 11.2447 4.80613C11.2448 4.8061 11.2449 4.80608 11.245 4.80606C11.245 4.80603 11.2451 4.80601 11.2452 4.80598C11.2453 4.80596 11.2453 4.80594 11.2454 4.80591C11.2455 4.80589 11.2455 4.80586 11.2456 4.80584C11.2457 4.80582 11.2458 4.80579 11.2458 4.80577C11.2459 4.80574 11.246 4.80572 11.2461 4.8057C11.2461 4.80567 11.2462 4.80565 11.2463 4.80562C11.2463 4.8056 11.2464 4.80558 11.2465 4.80555C11.2466 4.80553 11.2466 4.8055 11.2467 4.80548C11.2468 4.80546 11.2468 4.80543 11.2469 4.80541C11.247 4.80539 11.2471 4.80536 11.2471 4.80534C11.2472 4.80531 11.2473 4.80529 11.2473 4.80527C11.2474 4.80524 11.2475 4.80522 11.2475 4.8052C11.2476 4.80517 11.2477 4.80515 11.2478 4.80513C11.2478 4.8051 11.2479 4.80508 11.248 4.80505C11.248 4.80503 11.2481 4.80501 11.2482 4.80498C11.2483 4.80496 11.2483 4.80494 11.2484 4.80491C11.2485 4.80489 11.2485 4.80487 11.2486 4.80484C11.2487 4.80482 11.2487 4.8048 11.2488 4.80477C11.2489 4.80475 11.249 4.80473 11.249 4.8047C11.2491 4.80468 11.2492 4.80466 11.2492 4.80463C11.2493 4.80461 11.2494 4.80459 11.2494 4.80456C11.2495 4.80454 11.2496 4.80452 11.2497 4.8045C11.2497 4.80447 11.2498 4.80445 11.2499 4.80443C11.2499 4.8044 11.25 4.80438 11.2501 4.80436C11.2501 4.80433 11.2502 4.80431 11.2503 4.80429C11.2503 4.80426 11.2504 4.80424 11.2505 4.80422C11.2505 4.8042 11.2506 4.80417 11.2507 4.80415C11.2508 4.80413 11.2508 4.8041 11.2509 4.80408C11.251 4.80406 11.251 4.80404 11.2511 4.80401C11.2512 4.80399 11.2512 4.80397 11.2513 4.80395C11.2514 4.80392 11.2514 4.8039 11.2515 4.80388C11.2516 4.80385 11.2516 4.80383 11.2517 4.80381C11.2518 4.80379 11.2518 4.80376 11.2519 4.80374C11.252 4.80372 11.252 4.8037 11.2521 4.80367C11.2522 4.80365 11.2522 4.80363 11.2523 4.80361C11.2524 4.80358 11.2525 4.80356 11.2525 4.80354C11.2526 4.80352 11.2527 4.80349 11.2527 4.80347C11.2528 4.80345 11.2529 4.80343 11.2529 4.8034C11.253 4.80338 11.2531 4.80336 11.2531 4.80334C11.2532 4.80332 11.2533 4.80329 11.2533 4.80327C11.2534 4.80325 11.2535 4.80323 11.2535 4.8032C11.2536 4.80318 11.2537 4.80316 11.2537 4.80314C11.2538 4.80312 11.2539 4.80309 11.2539 4.80307C11.254 4.80305 11.2541 4.80303 11.2541 4.80301C11.2542 4.80298 11.2543 4.80296 11.2543 4.80294C11.2544 4.80292 11.2544 4.8029 11.2545 4.80287C11.2546 4.80285 11.2546 4.80283 11.2547 4.80281C11.2548 4.80279 11.2548 4.80276 11.2549 4.80274C11.255 4.80272 11.255 4.8027 11.2551 4.80268C11.2552 4.80266 11.2552 4.80263 11.2553 4.80261C11.2554 4.80259 11.2554 4.80257 11.2555 4.80255C11.2556 4.80253 11.2556 4.8025 11.2557 4.80248C11.2558 4.80246 11.2558 4.80244 11.2559 4.80242C11.2559 4.8024 11.256 4.80237 11.2561 4.80235C11.2561 4.80233 11.2562 4.80231 11.2563 4.80229C11.2563 4.80227 11.2564 4.80225 11.2565 4.80222C11.2565 4.8022 11.2566 4.80218 11.2567 4.80216C11.2567 4.80214 11.2568 4.80212 11.2568 4.8021C11.2569 4.80207 11.257 4.80205 11.257 4.80203C11.2571 4.80201 11.2572 4.80199 11.2572 4.80197C11.2573 4.80195 11.2574 4.80193 11.2574 4.8019C11.2575 4.80188 11.2576 4.80186 11.2576 4.80184C11.2577 4.80182 11.2577 4.8018 11.2578 4.80178C11.2579 4.80176 11.2579 4.80174 11.258 4.80171C11.2581 4.80169 11.2581 4.80167 11.2582 4.80165C11.2582 4.80163 11.2583 4.80161 11.2584 4.80159C11.2584 4.80157 11.2585 4.80155 11.2586 4.80153C11.2586 4.80151 11.2587 4.80148 11.2587 4.80146C11.2588 4.80144 11.2589 4.80142 11.2589 4.8014C11.259 4.80138 11.2591 4.80136 11.2591 4.80134C11.2592 4.80132 11.2592 4.8013 11.2593 4.80128C11.2594 4.80126 11.2594 4.80124 11.2595 4.80121C11.2596 4.80119 11.2596 4.80117 11.2597 4.80115C11.2597 4.80113 11.2598 4.80111 11.2599 4.80109C11.2599 4.80107 11.26 4.80105 11.26 4.80103C11.2601 4.80101 11.2602 4.80099 11.2602 4.80097C11.2603 4.80095 11.2604 4.80093 11.2604 4.80091C11.2605 4.80089 11.2605 4.80087 11.2606 4.80085C11.2607 4.80083 11.2607 4.80081 11.2608 4.80079C11.2608 4.80076 11.2609 4.80074 11.261 4.80072C11.261 4.8007 11.2611 4.80068 11.2611 4.80066C11.2612 4.80064 11.2613 4.80062 11.2613 4.8006C11.2614 4.80058 11.2614 4.80056 11.2615 4.80054C11.2616 4.80052 11.2616 4.8005 11.2617 4.80048C11.2617 4.80046 11.2618 4.80044 11.2619 4.80042C11.2619 4.8004 11.262 4.80038 11.262 4.80036C11.2621 4.80034 11.2622 4.80032 11.2622 4.8003C11.2623 4.80028 11.2623 4.80026 11.2624 4.80024C11.2625 4.80022 11.2625 4.8002 11.2626 4.80018C11.2626 4.80016 11.2627 4.80014 11.2628 4.80012C11.2628 4.80011 11.2629 4.80009 11.2629 4.80007C11.263 4.80005 11.2631 4.80003 11.2631 4.80001C11.2632 4.79999 11.2632 4.79997 11.2633 4.79995C11.2634 4.79993 11.2634 4.79991 11.2635 4.79989C11.2635 4.79987 11.2636 4.79985 11.2636 4.79983C11.2637 4.79981 11.2638 4.79979 11.2638 4.79977C11.2639 4.79975 11.2639 4.79973 11.264 4.79971C11.2641 4.79969 11.2641 4.79968 11.2642 4.79966C11.2642 4.79964 11.2643 4.79962 11.2643 4.7996C11.2644 4.79958 11.2645 4.79956 11.2645 4.79954C11.2646 4.79952 11.2646 4.7995 11.2647 4.79948C11.2647 4.79946 11.2648 4.79944 11.2649 4.79943C11.2649 4.79941 11.265 4.79939 11.265 4.79937C11.2651 4.79935 11.2651 4.79933 11.2652 4.79931C11.2653 4.79929 11.2653 4.79927 11.2654 4.79925C11.2654 4.79923 11.2655 4.79922 11.2655 4.7992C11.2656 4.79918 11.2657 4.79916 11.2657 4.79914C11.2658 4.79912 11.2658 4.7991 11.2659 4.79908C11.2659 4.79906 11.266 4.79905 11.2661 4.79903C11.2661 4.79901 11.2662 4.79899 11.2662 4.79897C11.2663 4.79895 11.2663 4.79893 11.2664 4.79891C11.2665 4.7989 11.2665 4.79888 11.2666 4.79886C11.2666 4.79884 11.2667 4.79882 11.2667 4.7988C11.2668 4.79878 11.2668 4.79877 11.2669 4.79875C11.267 4.79873 11.267 4.79871 11.2671 4.79869C11.2671 4.79867 11.2672 4.79865 11.2672 4.79864C11.2673 4.79862 11.2673 4.7986 11.2674 4.79858C11.2675 4.79856 11.2675 4.79854 11.2676 4.79853C11.2676 4.79851 11.2677 4.79849 11.2677 4.79847C11.2678 4.79845 11.2678 4.79843 11.2679 4.79842C11.2679 4.7984 11.268 4.79838 11.2681 4.79836C11.2681 4.79834 11.2682 4.79832 11.2682 4.79831C11.2683 4.79829 11.2683 4.79827 11.2684 4.79825C11.2684 4.79823 11.2685 4.79822 11.2685 4.7982C11.2686 4.79818 11.2687 4.79816 11.2687 4.79814C11.2688 4.79813 11.2688 4.79811 11.2689 4.79809C11.2689 4.79807 11.269 4.79805 11.269 4.79804C11.2691 4.79802 11.2691 4.798 11.2692 4.79798C11.2692 4.79796 11.2693 4.79795 11.2694 4.79793C11.2694 4.79791 11.2695 4.79789 11.2695 4.79788C11.2696 4.79786 11.2696 4.79784 11.2697 4.79782C11.2697 4.7978 11.2698 4.79779 11.2698 4.79777C11.2699 4.79775 11.2699 4.79773 11.27 4.79772C11.27 4.7977 11.2701 4.79768 11.2701 4.79766C11.2702 4.79765 11.2703 4.79763 11.2703 4.79761C11.2704 4.79759 11.2704 4.79758 11.2705 4.79756C11.2705 4.79754 11.2706 4.79752 11.2706 4.79751C11.2707 4.79749 11.2707 4.79747 11.2708 4.79745C11.2708 4.79744 11.2709 4.79742 11.2709 4.7974C11.271 4.79738 11.271 4.79737 11.2711 4.79735C11.2711 4.79733 11.2712 4.79732 11.2712 4.7973C11.2713 4.79728 11.2713 4.79726 11.2714 4.79725C11.2714 4.79723 11.2715 4.79721 11.2716 4.7972C11.2716 4.79718 11.2717 4.79716 11.2717 4.79714C11.2718 4.79713 11.2718 4.79711 11.2719 4.79709C11.2719 4.79708 11.272 4.79706 11.272 4.79704C11.2721 4.79703 11.2721 4.79701 11.2722 4.79699C11.2722 4.79697 11.2723 4.79696 11.2723 4.79694C11.2724 4.79692 11.2724 4.79691 11.2725 4.79689C11.2725 4.79687 11.2726 4.79686 11.2726 4.79684C11.2727 4.79682 11.2727 4.79681 11.2728 4.79679C11.2728 4.79677 11.2729 4.79676 11.2729 4.79674C11.273 4.79672 11.273 4.79671 11.2731 4.79669C11.2731 4.79667 11.2732 4.79666 11.2732 4.79664C11.2733 4.79662 11.2733 4.79661 11.2734 4.79659C11.2734 4.79657 11.2735 4.79656 11.2735 4.79654C11.2736 4.79652 11.2736 4.79651 11.2737 4.79649C11.2737 4.79648 11.2738 4.79646 11.2738 4.79644C11.2739 4.79643 11.2739 4.79641 11.274 4.79639C11.274 4.79638 11.2741 4.79636 11.2741 4.79634C11.2742 4.79633 11.2742 4.79631 11.2742 4.7963C11.2743 4.79628 11.2743 4.79626 11.2744 4.79625C11.2744 4.79623 11.2745 4.79621 11.2745 4.7962C11.2746 4.79618 11.2746 4.79617 11.2747 4.79615C11.2747 4.79613 11.2748 4.79612 11.2748 4.7961C11.2749 4.79609 11.2749 4.79607 11.275 4.79605C11.275 4.79604 11.2751 4.79602 11.2751 4.79601C11.2752 4.79599 11.2752 4.79597 11.2753 4.79596C11.2753 4.79594 11.2754 4.79593 11.2754 4.79591C11.2755 4.7959 11.2755 4.79588 11.2755 4.79586C11.2756 4.79585 11.2756 4.79583 11.2757 4.79582C11.2757 4.7958 11.2758 4.79579 11.2758 4.79577C11.2759 4.79575 11.2759 4.79574 11.276 4.79572C11.276 4.79571 11.2761 4.79569 11.2761 4.79568C11.2762 4.79566 11.2762 4.79564 11.2762 4.79563C11.2763 4.79561 11.2763 4.7956 11.2764 4.79558C11.2764 4.79557 11.2765 4.79555 11.2765 4.79554C11.2766 4.79552 11.2766 4.79551 11.2767 4.79549C11.2767 4.79547 11.2768 4.79546 11.2768 4.79544C11.2769 4.79543 11.2769 4.79541 11.2769 4.7954C11.277 4.79538 11.277 4.79537 11.2771 4.79535C11.2771 4.79534 11.2772 4.79532 11.2772 4.79531C11.2773 4.79529 11.2773 4.79528 11.2774 4.79526C11.2774 4.79525 11.2774 4.79523 11.2775 4.79522C11.2775 4.7952 11.2776 4.79519 11.2776 4.79517C11.2777 4.79516 11.2777 4.79514 11.2778 4.79513C11.2778 4.79511 11.2778 4.7951 11.2779 4.79508C11.2779 4.79507 11.278 4.79505 11.278 4.79504C11.2781 4.79502 11.2781 4.79501 11.2782 4.79499C11.2782 4.79498 11.2782 4.79496 11.2783 4.79495C11.2783 4.79493 11.2784 4.79492 11.2784 4.7949C11.2785 4.79489 11.2785 4.79487 11.2786 4.79486C11.2786 4.79484 11.2786 4.79483 11.2787 4.79482C11.2787 4.7948 11.2788 4.79479 11.2788 4.79477C11.2789 4.79476 11.2789 4.79474 11.279 4.79473C11.279 4.79471 11.279 4.7947 11.2791 4.79468C11.2791 4.79467 11.2792 4.79466 11.2792 4.79464C11.2793 4.79463 11.2793 4.79461 11.2793 4.7946C11.2794 4.79458 11.2794 4.79457 11.2795 4.79455C11.2795 4.79454 11.2796 4.79453 11.2796 4.79451C11.2796 4.7945 11.2797 4.79448 11.2797 4.79447C11.2798 4.79445 11.2798 4.79444 11.2799 4.79443C11.2799 4.79441 11.2799 4.7944 11.28 4.79438C11.28 4.79437 11.2801 4.79436 11.2801 4.79434C11.2802 4.79433 11.2802 4.79431 11.2802 4.7943C11.2803 4.79429 11.2803 4.79427 11.2804 4.79426C11.2804 4.79424 11.2804 4.79423 11.2805 4.79422C11.2805 4.7942 11.2806 4.79419 11.2806 4.79417C11.2807 4.79416 11.2807 4.79415 11.2807 4.79413C11.2808 4.79412 11.2808 4.7941 11.2809 4.79409C11.2809 4.79408 11.2809 4.79406 11.281 4.79405C11.281 4.79404 11.2811 4.79402 11.2811 4.79401C11.2812 4.79399 11.2812 4.79398 11.2812 4.79397C11.2813 4.79395 11.2813 4.79394 11.2814 4.79393C11.2814 4.79391 11.2814 4.7939 11.2815 4.79389C11.2815 4.79387 11.2816 4.79386 11.2816 4.79385C11.2816 4.79383 11.2817 4.79382 11.2817 4.7938C11.2818 4.79379 11.2818 4.79378 11.2818 4.79376C11.2819 4.79375 11.2819 4.79374 11.282 4.79372C11.282 4.79371 11.282 4.7937 11.2821 4.79368C11.2821 4.79367 11.2822 4.79366 11.2822 4.79364C11.2822 4.79363 11.2823 4.79362 11.2823 4.79361C11.2824 4.79359 11.2824 4.79358 11.2824 4.79357C11.2825 4.79355 11.2825 4.79354 11.2826 4.79353C11.2826 4.79351 11.2826 4.7935 11.2827 4.79349C11.2827 4.79347 11.2828 4.79346 11.2828 4.79345C11.2828 4.79343 11.2829 4.79342 11.2829 4.79341C11.2829 4.7934 11.283 4.79338 11.283 4.79337C11.2831 4.79336 11.2831 4.79334 11.2831 4.79333C11.2832 4.79332 11.2832 4.79331 11.2833 4.79329C11.2833 4.79328 11.2833 4.79327 11.2834 4.79325C11.2834 4.79324 11.2834 4.79323 11.2835 4.79322C11.2835 4.7932 11.2836 4.79319 11.2836 4.79318C11.2836 4.79317 11.2837 4.79315 11.2837 4.79314C11.2838 4.79313 11.2838 4.79312 11.2838 4.7931C11.2839 4.79309 11.2839 4.79308 11.2839 4.79307C11.284 4.79305 11.284 4.79304 11.2841 4.79303C11.2841 4.79302 11.2841 4.793 11.2842 4.79299C11.2842 4.79298 11.2842 4.79297 11.2843 4.79295C11.2843 4.79294 11.2843 4.79293 11.2844 4.79292C11.2844 4.7929 11.2845 4.79289 11.2845 4.79288C11.2845 4.79287 11.2846 4.79286 11.2846 4.79284C11.2846 4.79283 11.2847 4.79282 11.2847 4.79281C11.2848 4.79279 11.2848 4.79278 11.2848 4.79277C11.2849 4.79276 11.2849 4.79275 11.2849 4.79273C11.285 4.79272 11.285 4.79271 11.285 4.7927C11.2851 4.79269 11.2851 4.79267 11.2852 4.79266C11.2852 4.79265 11.2852 4.79264 11.2853 4.79263C11.2853 4.79261 11.2853 4.7926 11.2854 4.79259C11.2854 4.79258 11.2854 4.79257 11.2855 4.79256C11.2855 4.79254 11.2855 4.79253 11.2856 4.79252C11.2856 4.79251 11.2856 4.7925 11.2857 4.79248C11.2857 4.79247 11.2858 4.79246 11.2858 4.79245C11.2858 4.79244 11.2859 4.79243 11.2859 4.79241C11.2859 4.7924 11.286 4.79239 11.286 4.79238C11.286 4.79237 11.2861 4.79236 11.2861 4.79235C11.2861 4.79233 11.2862 4.79232 11.2862 4.79231C11.2862 4.7923 11.2863 4.79229 11.2863 4.79228C11.2863 4.79227 11.2864 4.79225 11.2864 4.79224C11.2864 4.79223 11.2865 4.79222 11.2865 4.79221C11.2865 4.7922 11.2866 4.79219 11.2866 4.79217C11.2866 4.79216 11.2867 4.79215 11.2867 4.79214C11.2867 4.79213 11.2868 4.79212 11.2868 4.79211C11.2868 4.7921 11.2869 4.79209 11.2869 4.79207C11.2869 4.79206 11.287 4.79205 11.287 4.79204C11.287 4.79203 11.2871 4.79202 11.2871 4.79201C11.2871 4.792 11.2872 4.79199 11.2872 4.79197C11.2872 4.79196 11.2873 4.79195 11.2873 4.79194C11.2873 4.79193 11.2874 4.79192 11.2874 4.79191C11.2874 4.7919 11.2875 4.79189 11.2875 4.79188C11.2875 4.79187 11.2876 4.79186 11.2876 4.79184C11.2876 4.79183 11.2877 4.79182 11.2877 4.79181C11.2877 4.7918 11.2878 4.79179 11.2878 4.79178C11.2878 4.79177 11.2879 4.79176 11.2879 4.79175C11.2879 4.79174 11.288 4.79173 11.288 4.79172C11.288 4.79171 11.2881 4.7917 11.2881 4.79169C11.2881 4.79167 11.2881 4.79166 11.2882 4.79165C11.2882 4.79164 11.2882 4.79163 11.2883 4.79162C11.2883 4.79161 11.2883 4.7916 11.2884 4.79159C11.2884 4.79158 11.2884 4.79157 11.2885 4.79156C11.2885 4.79155 11.2885 4.79154 11.2885 4.79153C11.2886 4.79152 11.2886 4.79151 11.2886 4.7915C11.2887 4.79149 11.2887 4.79148 11.2887 4.79147C11.2888 4.79146 11.2888 4.79145 11.2888 4.79144C11.2889 4.79143 11.2889 4.79142 11.2889 4.79141C11.2889 4.7914 11.289 4.79139 11.289 4.79138C11.289 4.79137 11.2891 4.79136 11.2891 4.79135C11.2891 4.79134 11.2892 4.79133 11.2892 4.79132C11.2892 4.79131 11.2892 4.7913 11.2893 4.79129C11.2893 4.79128 11.2893 4.79127 11.2894 4.79126C11.2894 4.79125 11.2894 4.79124 11.2895 4.79123C11.2895 4.79122 11.2895 4.79121 11.2895 4.7912C11.2896 4.79119 11.2896 4.79118 11.2896 4.79117C11.2897 4.79116 11.2897 4.79115 11.2897 4.79114C11.2897 4.79113 11.2898 4.79112 11.2898 4.79111C11.2898 4.7911 11.2899 4.79109 11.2899 4.79108C11.2899 4.79107 11.2899 4.79106 11.29 4.79106C11.29 4.79105 11.29 4.79104 11.2901 4.79103C11.2901 4.79102 11.2901 4.79101 11.2901 4.791C11.2902 4.79099 11.2902 4.79098 11.2902 4.79097C11.2903 4.79096 11.2903 4.79095 11.2903 4.79094C11.2903 4.79093 11.2904 4.79092 11.2904 4.79092C11.2904 4.79091 11.2904 4.7909 11.2905 4.79089C11.2905 4.79088 11.2905 4.79087 11.2906 4.79086C11.2906 4.79085 11.2906 4.79084 11.2906 4.79083C11.2907 4.79082 11.2907 4.79081 11.2907 4.79081C11.2907 4.7908 11.2908 4.79079 11.2908 4.79078C11.2908 4.79077 11.2909 4.79076 11.2909 4.79075C11.2909 4.79074 11.2909 4.79073 11.291 4.79073C11.291 4.79072 11.291 4.79071 11.291 4.7907C11.2911 4.79069 11.2911 4.79068 11.2911 4.79067C11.2911 4.79066 11.2912 4.79065 11.2912 4.79065C11.2912 4.79064 11.2913 4.79063 11.2913 4.79062C11.2913 4.79061 11.2913 4.7906 11.2914 4.79059C11.2914 4.79059 11.2914 4.79058 11.2914 4.79057C11.2915 4.79056 11.2915 4.79055 11.2915 4.79054C11.2915 4.79053 11.2916 4.79053 11.2916 4.79052C11.2916 4.79051 11.2916 4.7905 11.2917 4.79049C11.2917 4.79048 11.2917 4.79047 11.2917 4.79047C11.2918 4.79046 11.2918 4.79045 11.2918 4.79044C11.2918 4.79043 11.2919 4.79042 11.2919 4.79042C11.2919 4.79041 11.2919 4.7904 11.292 4.79039C11.292 4.79038 11.292 4.79038 11.292 4.79037C11.2921 4.79036 11.2921 4.79035 11.2921 4.79034C11.2921 4.79033 11.2922 4.79033 11.2922 4.79032C11.2922 4.79031 11.2922 4.7903 11.2923 4.79029C11.2923 4.79029 11.2923 4.79028 11.2923 4.79027C11.2924 4.79026 11.2924 4.79025 11.2924 4.79025C11.2924 4.79024 11.2924 4.79023 11.2925 4.79022C11.2925 4.79021 11.2925 4.79021 11.2925 4.7902C11.2926 4.79019 11.2926 4.79018 11.2926 4.79018C11.2926 4.79017 11.2927 4.79016 11.2927 4.79015C11.2927 4.79014 11.2927 4.79014 11.2928 4.79013C11.2928 4.79012 11.2928 4.79011 11.2928 4.79011C11.2928 4.7901 11.2929 4.79009 11.2929 4.79008C11.2929 4.79008 11.2929 4.79007 11.293 4.79006C11.293 4.79005 11.293 4.79005 11.293 4.79004C11.293 4.79003 11.2931 4.79002 11.2931 4.79002C11.2931 4.79001 11.2931 4.79 11.2932 4.78999C11.2932 4.78999 11.2932 4.78998 11.2932 4.78997C11.2932 4.78996 11.2933 4.78996 11.2933 4.78995C11.2933 4.78994 11.2933 4.78993 11.2934 4.78993C11.2934 4.78992 11.2934 4.78991 11.2934 4.78991C11.2934 4.7899 11.2935 4.78989 11.2935 4.78988C11.2935 4.78988 11.2935 4.78987 11.2935 4.78986C11.2936 4.78986 11.2936 4.78985 11.2936 4.78984C11.2936 4.78983 11.2937 4.78983 11.2937 4.78982C11.2937 4.78981 11.2937 4.78981 11.2937 4.7898C11.2938 4.78979 11.2938 4.78979 11.2938 4.78978C11.2938 4.78977 11.2938 4.78977 11.2939 4.78976C11.2939 4.78975 11.2939 4.78974 11.2939 4.78974C11.2939 4.78973 11.294 4.78972 11.294 4.78972C11.294 4.78971 11.294 4.7897 11.294 4.7897C11.2941 4.78969 11.2941 4.78968 11.2941 4.78968C11.2941 4.78967 11.2941 4.78966 11.2942 4.78966C11.2942 4.78965 11.2942 4.78964 11.2942 4.78964C11.2942 4.78963 11.2943 4.78962 11.2943 4.78962C11.2943 4.78961 11.2943 4.78961 11.2943 4.7896C11.2944 4.78959 11.2944 4.78959 11.2944 4.78958C11.2944 4.78957 11.2944 4.78957 11.2945 4.78956C11.2945 4.78955 11.2945 4.78955 11.2945 4.78954C11.2945 4.78954 11.2946 4.78953 11.2946 4.78952C11.2946 4.78952 11.2946 4.78951 11.2946 4.7895C11.2946 4.7895 11.2947 4.78949 11.2947 4.78949C11.2947 4.78948 11.2947 4.78947 11.2947 4.78947C11.2948 4.78946 11.2948 4.78946 11.2948 4.78945C11.2948 4.78944 11.2948 4.78944 11.2948 4.78943C11.2949 4.78942 11.2949 4.78942 11.2949 4.78941C11.2949 4.78941 11.2949 4.7894 11.295 4.7894C11.295 4.78939 11.295 4.78938 11.295 4.78938C11.295 4.78937 11.295 4.78937 11.2951 4.78936C11.2951 4.78935 11.2951 4.78935 11.2951 4.78934C11.2951 4.78934 11.2951 4.78933 11.2952 4.78933C11.2952 4.78932 11.2952 4.78931 11.2952 4.78931C11.2952 4.7893 11.2952 4.7893 11.2953 4.78929C11.2953 4.78929 11.2953 4.78928 11.2953 4.78927C11.2953 4.78927 11.2953 4.78926 11.2954 4.78926C11.2954 4.78925 11.2954 4.78925 11.2954 4.78924C11.2954 4.78924 11.2954 4.78923 11.2955 4.78923C11.2955 4.78922 11.2955 4.78921 11.2955 4.78921C11.2955 4.7892 11.2955 4.7892 11.2956 4.78919C11.2956 4.78919 11.2956 4.78918 11.2956 4.78918C11.2956 4.78917 11.2956 4.78917 11.2957 4.78916C11.2957 4.78916 11.2957 4.78915 11.2957 4.78915C11.2957 4.78914 11.2957 4.78914 11.2957 4.78913C11.2958 4.78913 11.2958 4.78912 11.2958 4.78912C11.2958 4.78911 11.2958 4.78911 11.2958 4.7891C11.2959 4.7891 11.2959 4.78909 11.2959 4.78909C11.2959 4.78908 11.2959 4.78908 11.2959 4.78907C11.2959 4.78907 11.296 4.78906 11.296 4.78906C11.296 4.78905 11.296 4.78905 11.296 4.78904C11.296 4.78904 11.296 4.78903 11.2961 4.78903C11.2961 4.78902 11.2961 4.78902 11.2961 4.78901C11.2961 4.78901 11.2961 4.789 11.2961 4.789C11.2962 4.78899 11.2962 4.78899 11.2962 4.78899C11.2962 4.78898 11.2962 4.78898 11.2962 4.78897C11.2962 4.78897 11.2963 4.78896 11.2963 4.78896C11.2963 4.78895 11.2963 4.78895 11.2963 4.78894C11.2963 4.78894 11.2963 4.78894 11.2963 4.78893C11.2964 4.78893 11.2964 4.78892 11.2964 4.78892C11.2964 4.78891 11.2964 4.78891 11.2964 4.7889C11.2964 4.7889 11.2964 4.7889 11.2965 4.78889C11.2965 4.78889 11.2965 4.78888 11.2965 4.78888C11.2965 4.78888 11.2965 4.78887 11.2965 4.78887C11.2965 4.78886 11.2966 4.78886 11.2966 4.78885C11.2966 4.78885 11.2966 4.78885 11.2966 4.78884C11.2966 4.78884 11.2966 4.78883 11.2966 4.78883C11.2967 4.78883 11.2967 4.78882 11.2967 4.78882C11.2967 4.78881 11.2967 4.78881 11.2967 4.78881C11.2967 4.7888 11.2967 4.7888 11.2968 4.78879C11.2968 4.78879 11.2968 4.78879 11.2968 4.78878C11.2968 4.78878 11.2968 4.78878 11.2968 4.78877C11.2968 4.78877 11.2968 4.78876 11.2969 4.78876C11.2969 4.78876 11.2969 4.78875 11.2969 4.78875C11.2969 4.78875 11.2969 4.78874 11.2969 4.78874C11.2969 4.78873 11.2969 4.78873 11.297 4.78873C11.297 4.78872 11.297 4.78872 11.297 4.78872C11.297 4.78871 11.297 4.78871 11.297 4.78871C11.297 4.7887 11.297 4.7887 11.297 4.7887C11.2971 4.78869 11.2971 4.78869 11.2971 4.78869C11.2971 4.78868 11.2971 4.78868 11.2971 4.78868C11.2971 4.78867 11.2971 4.78867 11.2971 4.78867C11.2971 4.78866 11.2972 4.78866 11.2972 4.78866C11.2972 4.78865 11.2972 4.78865 11.2972 4.78865C11.2972 4.78864 11.2972 4.78864 11.2972 4.78864C11.2972 4.78863 11.2972 4.78863 11.2973 4.78863C11.2973 4.78862 11.2973 4.78862 11.2973 4.78862C11.2973 4.78862 11.2973 4.78861 11.2973 4.78861C11.2973 4.78861 11.2973 4.7886 11.2973 4.7886C11.2973 4.7886 11.2974 4.78859 11.2974 4.78859C11.2974 4.78859 11.2974 4.78859 11.2974 4.78858C11.2974 4.78858 11.2974 4.78858 11.2974 4.78858C11.2974 4.78857 11.2974 4.78857 11.2974 4.78857C11.2974 4.78856 11.2975 4.78856 11.2975 4.78856C11.2975 4.78856 11.2975 4.78855 11.2975 4.78855C11.2975 4.78855 11.2975 4.78855 11.2975 4.78854C11.2975 4.78854 11.2975 4.78854 11.2975 4.78854C11.2975 4.78853 11.2975 4.78853 11.2976 4.78853C11.2976 4.78853 11.2976 4.78852 11.2976 4.78852C11.2976 4.78852 11.2976 4.78852 11.2976 4.78851C11.2976 4.78851 11.2976 4.78851 11.2976 4.78851C11.2976 4.7885 11.2976 4.7885 11.2976 4.7885C11.2976 4.7885 11.2977 4.78849 11.2977 4.78849C11.2977 4.78849 11.2977 4.78849 11.2977 4.78849C11.2977 4.78848 11.2977 4.78848 11.2977 4.78848C11.2977 4.78848 11.2977 4.78848 11.2977 4.78847C11.2977 4.78847 11.2977 4.78847 11.2977 4.78847C11.2977 4.78846 11.2977 4.78846 11.2978 4.78846C11.2978 4.78846 11.2978 4.78846 11.2978 4.78845C11.2978 4.78845 11.2978 4.78845 11.2978 4.78845C11.2978 4.78845 11.2978 4.78845 11.2978 4.78844C11.2978 4.78844 11.2978 4.78844 11.2978 4.78844C11.2978 4.78844 11.2978 4.78843 11.2978 4.78843C11.2978 4.78843 11.2978 4.78843 11.2979 4.78843C11.2979 4.78843 11.2979 4.78842 11.2979 4.78842C11.2979 4.78842 11.2979 4.78842 11.2979 4.78842C11.2979 4.78842 11.2979 4.78841 11.2979 4.78841C11.2979 4.78841 11.2979 4.78841 11.2979 4.78841C11.2979 4.78841 11.2979 4.78841 11.2979 4.7884C11.2979 4.7884 11.2979 4.7884 11.2979 4.7884C11.2979 4.7884 11.2979 4.7884 11.2979 4.7884C11.298 4.78839 11.298 4.78839 11.298 4.78839C11.298 4.78839 11.298 4.78839 11.298 4.78839C11.298 4.78839 11.298 4.78839 11.298 4.78838C11.298 4.78838 11.298 4.78838 11.298 4.78838C11.298 4.78838 11.298 4.78838 11.298 4.78838C11.298 4.78838 11.298 4.78838 11.298 4.78837C11.298 4.78837 11.298 4.78837 11.298 4.78837C11.298 4.78837 11.298 4.78837 11.298 4.78837C11.298 4.78837 11.298 4.78837 11.298 4.78837C11.298 4.78837 11.298 4.78836 11.298 4.78836C11.298 4.78836 11.2981 4.78836 11.2981 4.78836C11.2981 4.78836 11.2981 4.78836 11.2981 4.78836C11.2981 4.78836 11.2981 4.78836 11.2981 4.78836C11.2981 4.78836 11.2981 4.78836 11.2981 4.78835C11.2981 4.78835 11.2981 4.78835 11.2981 4.78835C11.2981 4.78835 11.2981 4.78835 11.2981 4.78835C11.2981 4.78835 11.2981 4.78835 11.2981 4.78835C11.2981 4.78835 11.2981 4.78835 11.2981 4.78835C11.2981 4.78835 11.2981 4.78835 11.2981 4.78835C11.2981 4.78835 11.2981 4.78835 11.2981 4.78835C11.2981 4.78835 11.2981 4.78834 11.2981 4.78834C11.2981 4.78834 11.2981 4.78834 11.2981 4.78834C11.2981 4.78834 11.2981 4.78834 11.2981 4.78834C11.2981 4.78834 11.2981 4.78834 11.2981 4.78834C11.2981 4.78834 11.2981 4.78834 11.2981 4.78834C11.2981 4.78834 11.2981 4.78834 11.2981 4.78834C11.2981 4.78834 11.2981 4.78834 11.14 4.314ZM10.9234 3.85916C10.7917 3.90306 10.7138 3.9892 10.6957 4.0089C10.6642 4.04309 10.6401 4.0771 10.624 4.10124C10.5909 4.15089 10.5591 4.20852 10.5299 4.26505C10.4701 4.38098 10.3966 4.54111 10.3107 4.7392L11.2283 5.1368C11.3114 4.94489 11.3744 4.80927 11.4186 4.7237C11.4293 4.70295 11.438 4.68683 11.4449 4.67473C11.4483 4.66875 11.451 4.6642 11.453 4.66088C11.454 4.65925 11.4548 4.65803 11.4553 4.65717C11.4558 4.65631 11.4561 4.65592 11.4561 4.65594C11.4561 4.65596 11.4557 4.65653 11.455 4.65757C11.4542 4.6586 11.453 4.6603 11.4513 4.66255C11.4483 4.66659 11.4418 4.67488 11.432 4.68552C11.4229 4.69541 11.4055 4.71337 11.3799 4.73319C11.3566 4.75132 11.3091 4.78469 11.2396 4.80784L10.9234 3.85916ZM10.3053 4.7523C10.1406 5.164 9.81593 6.14669 9.3369 7.6744L10.2911 7.9736C10.7741 6.43331 11.0864 5.49199 11.2337 5.1237L10.3053 4.7523ZM9.3369 7.6744C8.85504 9.21117 8.41853 10.651 8.02745 11.9937L8.98755 12.2733C9.37647 10.938 9.81097 9.50483 10.2911 7.9736L9.3369 7.6744ZM8.02782 11.9924C7.8329 12.6551 7.68207 13.1644 7.57521 13.5206C7.52175 13.6988 7.47957 13.8378 7.44851 13.9381C7.43296 13.9883 7.42052 14.0279 7.41103 14.0573C7.40628 14.072 7.40253 14.0834 7.39967 14.0918C7.39657 14.101 7.39546 14.1039 7.39584 14.1029L8.33217 14.4541C8.37959 14.3276 8.60207 13.584 8.98718 12.2746L8.02782 11.9924ZM7.40095 14.0899C7.36157 14.1865 7.31772 14.2296 7.28162 14.2528C7.24327 14.2774 7.17381 14.305 7.045 14.305V15.305C7.3192 15.305 7.58773 15.2448 7.82238 15.094C8.05928 14.9417 8.22343 14.7215 8.32705 14.4671L7.40095 14.0899ZM7.045 14.305C7.0096 14.305 6.99435 14.2988 6.99008 14.2968C6.98658 14.2952 6.97799 14.291 6.96398 14.2739L6.19002 14.9071C6.40787 15.1734 6.70958 15.305 7.045 15.305V14.305ZM7.06571 14.4848C6.64558 12.5418 5.9002 9.77763 4.83315 6.19912L3.87485 6.48487C4.9398 10.0564 5.67642 12.7912 6.08829 14.6962L7.06571 14.4848ZM4.83189 6.19496L4.28589 4.42046L3.33011 4.71454L3.87611 6.48904L4.83189 6.19496ZM4.27224 4.3818C4.25162 4.33025 4.21696 4.25394 4.15943 4.18203C4.10841 4.11824 3.96711 3.97 3.73 3.97V4.97C3.51889 4.97 3.40359 4.83801 3.37857 4.80672C3.34704 4.76731 3.33838 4.73975 3.34376 4.7532L4.27224 4.3818ZM3.73 3.97C3.56641 3.97 3.41116 4.03299 3.29357 4.15057C3.18901 4.25513 3.13886 4.3777 3.11274 4.46914L4.07426 4.74386C4.07414 4.7443 4.05974 4.79862 4.00068 4.85768C3.92859 4.92976 3.82859 4.97 3.73 4.97V3.97ZM3.09444 4.57579C3.04135 5.4386 3.0155 7.11781 3.0155 9.5985H4.0155C4.0155 7.11319 4.04165 5.4644 4.09256 4.63721L3.09444 4.57579ZM3.0155 9.5985C3.0155 10.8383 3.03831 11.8565 3.0846 12.6501C3.13019 13.4316 3.20017 14.0317 3.30702 14.4133L4.26998 14.1437C4.19483 13.8753 4.12831 13.3704 4.0829 12.5919C4.03819 11.8255 4.0155 10.8287 4.0155 9.5985H3.0155ZM3.34129 14.5021C3.31911 14.4577 3.31214 14.4227 3.30993 14.4094C3.3075 14.3949 3.308 14.389 3.308 14.3955H4.308C4.308 14.318 4.30095 14.1854 4.23571 14.0549L3.34129 14.5021ZM3.308 14.3955C3.308 14.3962 3.30831 14.3894 3.31217 14.3809C3.31566 14.3732 3.31683 14.3756 3.30479 14.387C3.27534 14.4146 3.19537 14.4682 3.0195 14.5215L3.3095 15.4785C3.56263 15.4018 3.80441 15.2896 3.98946 15.1158C4.18856 14.9288 4.308 14.6816 4.308 14.3955H3.308ZM3.03294 14.5176C2.63599 14.6259 2.29108 14.6755 1.9945 14.6755V15.6755C2.39992 15.6755 2.83501 15.6081 3.29606 15.4824L3.03294 14.5176ZM1.9945 14.6755C1.92796 14.6755 1.88048 14.6716 1.84872 14.6667C1.81543 14.6616 1.81104 14.6571 1.82378 14.663C1.83751 14.6694 1.88279 14.6933 1.92453 14.7511C1.97 14.8141 1.9875 14.8844 1.9875 14.9415H0.9875C0.9875 15.0766 1.02613 15.2152 1.11385 15.3366C1.19783 15.4529 1.30649 15.5256 1.40472 15.571C1.58858 15.6558 1.80277 15.6755 1.9945 15.6755V14.6755ZM1.9875 14.9415C1.9875 14.9651 1.98578 14.9838 1.98467 14.994C1.98345 15.0053 1.98206 15.0143 1.98108 15.0202C1.97917 15.0316 1.97732 15.04 1.97659 15.0432C1.97509 15.0498 1.97426 15.0524 1.97535 15.0485C1.9773 15.0415 1.98155 15.0271 1.98911 15.0029C2.00394 14.9554 2.02713 14.8842 2.05934 14.7876L1.11066 14.4714C1.07787 14.5698 1.05231 14.6481 1.03464 14.7046C1.02595 14.7324 1.01802 14.7586 1.01183 14.7809C1.00886 14.7916 1.00499 14.806 1.00146 14.8215C0.999716 14.8292 0.997098 14.8413 0.994684 14.8558C0.993167 14.8649 0.9875 14.8986 0.9875 14.9415H1.9875ZM2.06468 14.7706C2.27703 14.0486 2.40253 13.0383 2.45508 11.7641L1.45592 11.7229C1.40447 12.9707 1.28297 13.8844 1.10532 14.4884L2.06468 14.7706ZM2.45484 11.7692C2.52038 10.4976 2.553 9.04579 2.553 7.4145H1.553C1.553 9.03321 1.52062 10.4674 1.45616 11.7178L2.45484 11.7692Z" fill="#CDD4CC" mask="url(#path-1-outside-1_124_136)"/>
<defs>
<linearGradient id="paint0_linear_124_136" x1="1" y1="-6" x2="20.5" y2="20.5" gradientUnits="userSpaceOnUse">
<stop stop-color="#002A02"/>
<stop offset="1" stop-color="#3FAE42"/>
</linearGradient>
</defs>
</svg>
