<svg width="97" height="22" viewBox="0 0 97 22" fill="none" xmlns="http://www.w3.org/2000/svg">
<path d="M1.053 7.4145L0.9555 3.729C0.9555 3.144 0.8905 2.6825 0.7605 2.3445C0.6305 2.0065 0.5655 1.8245 0.5655 1.7985C0.5655 1.5125 1.001 1.2915 1.872 1.1355C2.756 0.979499 3.4255 0.901499 3.8805 0.901499C4.3485 0.901499 4.602 1.012 4.641 1.233C5.46 4.886 6.149 7.421 6.708 8.838C6.773 8.994 6.838 9.072 6.903 9.072C6.981 9.072 7.046 9.0135 7.098 8.8965C7.969 6.4395 8.736 4.0085 9.399 1.6035C9.451 1.4475 9.581 1.3305 9.789 1.2525C9.997 1.1615 10.3545 1.077 10.8615 0.998999C11.3815 0.920999 11.895 0.881999 12.402 0.881999C12.909 0.881999 13.1625 0.985999 13.1625 1.194C13.1625 1.207 13.143 1.311 13.104 1.506C13.065 1.688 13.026 1.9155 12.987 2.1885C12.948 2.4615 12.9025 2.793 12.8505 3.183C12.7335 4.08 12.6555 5.1135 12.6165 6.2835C12.5905 7.4405 12.5775 8.604 12.5775 9.774L12.6165 11.8215C12.6165 12.7575 12.675 13.427 12.792 13.83C12.922 14.22 12.987 14.4475 12.987 14.5125C12.987 14.5645 12.9415 14.6295 12.8505 14.7075C12.4475 15.0325 11.8365 15.195 11.0175 15.195C10.4975 15.195 10.205 15.0195 10.14 14.6685C10.101 14.4865 10.0815 14.2005 10.0815 13.8105C10.0815 13.4075 10.1205 12.1855 10.1985 10.1445C10.2765 8.1035 10.3155 6.6215 10.3155 5.6985C10.3155 4.7625 10.2635 4.2945 10.1595 4.2945C10.1465 4.2945 10.14 4.301 10.14 4.314C10.14 4.314 10.1205 4.3205 10.0815 4.3335C10.0425 4.3465 9.9385 4.548 9.7695 4.938C9.6135 5.328 9.295 6.29 8.814 7.824C8.333 9.358 7.8975 10.7945 7.5075 12.1335C7.1175 13.4595 6.903 14.1745 6.864 14.2785C6.721 14.6295 6.448 14.805 6.045 14.805C5.85 14.805 5.694 14.7335 5.577 14.5905C5.161 12.6665 4.42 9.917 3.354 6.342L2.808 4.5675C2.782 4.5025 2.756 4.47 2.73 4.47C2.665 4.47 2.6195 4.5155 2.5935 4.6065C2.5415 5.4515 2.5155 7.1155 2.5155 9.5985C2.5155 12.0685 2.6065 13.6285 2.7885 14.2785C2.8015 14.3045 2.808 14.3435 2.808 14.3955C2.808 14.6685 2.5935 14.87 2.1645 15C1.7355 15.117 1.3455 15.1755 0.9945 15.1755C0.6565 15.1755 0.4875 15.0975 0.4875 14.9415C0.4875 14.9285 0.52 14.8245 0.585 14.6295C0.78 13.9665 0.9035 13.0045 0.9555 11.7435C1.0205 10.4825 1.053 9.0395 1.053 7.4145ZM20.6566 9.15L20.6176 11.646C20.6176 13.375 20.8061 14.415 21.1831 14.766C21.2351 14.818 21.2611 14.8765 21.2611 14.9415C21.2611 15.1365 20.8386 15.234 19.9936 15.234C19.1616 15.234 18.7196 14.987 18.6676 14.493C18.6546 14.376 18.6481 14.1355 18.6481 13.7715L18.7261 10.6515C18.7261 10.5605 18.6741 10.515 18.5701 10.515C17.9461 10.515 17.3611 10.6905 16.8151 11.0415C16.2691 11.3925 15.9961 11.841 15.9961 12.387C15.9961 12.673 16.0741 12.9135 16.2301 13.1085C16.3861 13.3035 16.5746 13.401 16.7956 13.401C17.0296 13.401 17.2181 13.3555 17.3611 13.2645C17.5171 13.1735 17.6081 13.1215 17.6341 13.1085C17.8551 13.1345 17.9656 13.3685 17.9656 13.8105C17.9656 14.2395 17.7641 14.5905 17.3611 14.8635C16.9581 15.1235 16.5356 15.2535 16.0936 15.2535C15.6516 15.2535 15.2681 15.1755 14.9431 15.0195C14.6311 14.8635 14.4036 14.688 14.2606 14.493C14.1176 14.298 14.0006 14.077 13.9096 13.83C13.8186 13.531 13.7731 13.271 13.7731 13.05C13.7731 12.14 14.0591 11.412 14.6311 10.866C15.2031 10.32 15.9376 9.93 16.8346 9.696C18.0176 9.462 18.6351 9.2475 18.6871 9.0525C18.7261 8.9095 18.7456 8.669 18.7456 8.331C18.7456 7.642 18.3946 7.2975 17.6926 7.2975C17.3936 7.2975 17.1271 7.395 16.8931 7.59C16.6591 7.772 16.5421 8.006 16.5421 8.292L16.6591 8.76C16.6331 8.981 16.3991 9.111 15.9571 9.15L15.7426 9.1695C15.3526 9.1695 15.0406 9.072 14.8066 8.877C14.5856 8.682 14.4751 8.422 14.4751 8.097C14.4751 7.889 14.5401 7.6615 14.6701 7.4145C14.8131 7.1545 14.9886 6.9465 15.1966 6.7905C15.4046 6.6345 15.7231 6.498 16.1521 6.381C16.5941 6.251 17.0166 6.186 17.4196 6.186C17.8226 6.186 18.1346 6.199 18.3556 6.225C18.5766 6.251 18.8756 6.316 19.2526 6.42C19.6426 6.511 19.9611 6.693 20.2081 6.966C20.4681 7.239 20.6046 7.5315 20.6176 7.8435C20.6436 8.1425 20.6566 8.578 20.6566 9.15ZM23.124 7.1415C23.41 6.8425 23.787 6.5955 24.255 6.4005C24.723 6.1925 25.1715 6.0885 25.6005 6.0885C26.0295 6.0885 26.465 6.186 26.907 6.381C26.959 6.381 26.998 6.368 27.024 6.342C27.362 6.004 27.856 5.835 28.506 5.835C28.662 5.835 28.74 5.9065 28.74 6.0495C28.74 6.0625 28.727 6.121 28.701 6.225C28.675 6.329 28.6425 6.485 28.6035 6.693C28.5645 6.888 28.532 7.1285 28.506 7.4145C28.415 8.1555 28.363 8.9745 28.35 9.8715C28.35 10.7685 28.35 11.6655 28.35 12.5625L28.4085 16.6575C28.4085 17.9705 28.0705 19.0625 27.3945 19.9335C27.1215 20.2845 26.7055 20.59 26.1465 20.85C25.6005 21.11 24.957 21.24 24.216 21.24C24.047 21.136 23.9625 21.032 23.9625 20.928C23.9625 20.824 24.034 20.7395 24.177 20.6745C24.996 20.2975 25.581 19.4005 25.932 17.9835C26.283 16.5795 26.4585 14.441 26.4585 11.568L26.4195 8.838L26.361 7.512C26.361 7.395 26.179 7.3105 25.815 7.2585C25.347 7.2585 24.9505 7.4145 24.6255 7.7265C24.3135 8.0255 24.099 8.422 23.982 8.916C23.774 9.709 23.67 10.398 23.67 10.983C23.67 11.555 23.761 12.062 23.943 12.504C24.138 12.946 24.4695 13.167 24.9375 13.167C25.0675 13.167 25.1845 13.141 25.2885 13.089C25.4055 13.037 25.4835 13.011 25.5225 13.011C25.6525 13.011 25.7175 13.141 25.7175 13.401C25.7175 13.661 25.698 13.8755 25.659 14.0445C25.62 14.2005 25.542 14.376 25.425 14.571C25.165 15 24.658 15.2145 23.904 15.2145C23.15 15.2145 22.6105 14.9415 22.2855 14.3955C21.9475 13.8365 21.7525 13.336 21.7005 12.894C21.6225 12.231 21.5835 11.7955 21.5835 11.5875C21.5835 11.3795 21.5835 11.217 21.5835 11.1C21.5965 10.97 21.629 10.723 21.681 10.359C21.746 9.982 21.824 9.631 21.915 9.306C22.019 8.968 22.175 8.5975 22.383 8.1945C22.591 7.7785 22.838 7.4275 23.124 7.1415ZM31.634 4.5675L31.166 4.548C30.815 4.548 30.5875 4.6325 30.4835 4.8015C30.4575 4.8405 30.425 4.86 30.386 4.86C30.217 4.86 30.1325 4.574 30.1325 4.002C30.1325 3.417 30.217 3.0465 30.386 2.8905C30.568 2.7345 30.8735 2.6565 31.3025 2.6565C31.7445 2.6565 32.0435 2.7345 32.1995 2.8905C32.3555 3.0335 32.4335 3.2805 32.4335 3.6315C32.4335 3.9825 32.375 4.2295 32.258 4.3725C32.141 4.5025 31.933 4.5675 31.634 4.5675ZM30.074 14.415L30.2885 9.8715C30.2885 8.7925 30.165 8.058 29.918 7.668C29.84 7.538 29.749 7.4405 29.645 7.3755C29.567 7.3495 29.528 7.2975 29.528 7.2195C29.528 6.9855 29.8595 6.758 30.5225 6.537C31.1855 6.316 31.6665 6.2055 31.9655 6.2055C32.2775 6.2055 32.44 6.2835 32.453 6.4395C32.453 6.6995 32.414 7.4405 32.336 8.6625C32.271 9.8715 32.2385 11.1455 32.2385 12.4845C32.2385 13.8235 32.3165 14.6555 32.4725 14.9805C32.5115 15.0455 32.531 15.1105 32.531 15.1755C32.531 15.3445 32.284 15.429 31.79 15.429C31.296 15.429 30.789 15.299 30.269 15.039C30.139 14.974 30.074 14.766 30.074 14.415ZM40.0963 12.7575C40.0963 13.4985 39.7973 14.116 39.1993 14.61C38.6143 15.091 37.9123 15.3315 37.0933 15.3315C35.8973 15.3315 35.0198 14.974 34.4608 14.259C33.9018 13.531 33.6223 12.5495 33.6223 11.3145C33.6223 10.0015 33.9148 8.838 34.4998 7.824C34.7858 7.304 35.1953 6.8945 35.7283 6.5955C36.2613 6.2965 36.8853 6.147 37.6003 6.147C38.6793 6.147 39.4398 6.511 39.8818 7.239C40.0638 7.538 40.1548 7.889 40.1548 8.292C40.1548 8.916 39.8948 9.384 39.3748 9.696C39.1668 9.813 38.9718 9.8715 38.7898 9.8715C38.6208 9.8715 38.4778 9.865 38.3608 9.852C38.2568 9.826 38.1138 9.735 37.9318 9.579C37.7498 9.423 37.6588 9.2085 37.6588 8.9355C37.6718 8.7925 37.7823 8.6755 37.9903 8.5845C38.1853 8.4675 38.2828 8.2595 38.2828 7.9605C38.2828 7.4535 37.9708 7.2 37.3468 7.2C37.1908 7.2 37.0023 7.2715 36.7813 7.4145C36.5733 7.5445 36.3978 7.72 36.2548 7.941C36.1118 8.149 35.9753 8.487 35.8453 8.955C35.7283 9.41 35.6698 9.852 35.6698 10.281C35.6698 10.697 35.6828 11.0155 35.7088 11.2365C35.7478 11.4445 35.8193 11.737 35.9233 12.114C36.0403 12.478 36.2483 12.777 36.5473 13.011C36.8593 13.245 37.2428 13.362 37.6978 13.362C38.2438 13.362 38.7248 13.1345 39.1408 12.6795C39.3098 12.4975 39.4463 12.2765 39.5503 12.0165C39.6023 11.9125 39.6673 11.8605 39.7453 11.8605C39.8623 11.8605 39.9468 11.971 39.9988 12.192C40.0638 12.4 40.0963 12.5885 40.0963 12.7575ZM42.785 15.0195L42.317 15.039C42.005 15.039 41.797 14.974 41.693 14.844C41.589 14.714 41.5305 14.4735 41.5175 14.1225C41.5175 13.7585 41.602 13.4985 41.771 13.3425C41.94 13.1865 42.226 13.1085 42.629 13.1085C43.032 13.1085 43.3245 13.1865 43.5065 13.3425C43.7015 13.4855 43.799 13.726 43.799 14.064C43.799 14.909 43.7145 15.3315 43.5455 15.3315L43.448 15.273C43.357 15.104 43.136 15.0195 42.785 15.0195ZM45.8421 7.4145L45.7446 3.729C45.7446 3.144 45.6796 2.6825 45.5496 2.3445C45.4196 2.0065 45.3546 1.8245 45.3546 1.7985C45.3546 1.5125 45.7901 1.2915 46.6611 1.1355C47.5451 0.979499 48.2146 0.901499 48.6696 0.901499C49.1376 0.901499 49.3911 1.012 49.4301 1.233C50.2491 4.886 50.9381 7.421 51.4971 8.838C51.5621 8.994 51.6271 9.072 51.6921 9.072C51.7701 9.072 51.8351 9.0135 51.8871 8.8965C52.7581 6.4395 53.5251 4.0085 54.1881 1.6035C54.2401 1.4475 54.3701 1.3305 54.5781 1.2525C54.7861 1.1615 55.1436 1.077 55.6506 0.998999C56.1706 0.920999 56.6841 0.881999 57.1911 0.881999C57.6981 0.881999 57.9516 0.985999 57.9516 1.194C57.9516 1.207 57.9321 1.311 57.8931 1.506C57.8541 1.688 57.8151 1.9155 57.7761 2.1885C57.7371 2.4615 57.6916 2.793 57.6396 3.183C57.5226 4.08 57.4446 5.1135 57.4056 6.2835C57.3796 7.4405 57.3666 8.604 57.3666 9.774L57.4056 11.8215C57.4056 12.7575 57.4641 13.427 57.5811 13.83C57.7111 14.22 57.7761 14.4475 57.7761 14.5125C57.7761 14.5645 57.7306 14.6295 57.6396 14.7075C57.2366 15.0325 56.6256 15.195 55.8066 15.195C55.2866 15.195 54.9941 15.0195 54.9291 14.6685C54.8901 14.4865 54.8706 14.2005 54.8706 13.8105C54.8706 13.4075 54.9096 12.1855 54.9876 10.1445C55.0656 8.1035 55.1046 6.6215 55.1046 5.6985C55.1046 4.7625 55.0526 4.2945 54.9486 4.2945C54.9356 4.2945 54.9291 4.301 54.9291 4.314C54.9291 4.314 54.9096 4.3205 54.8706 4.3335C54.8316 4.3465 54.7276 4.548 54.5586 4.938C54.4026 5.328 54.0841 6.29 53.6031 7.824C53.1221 9.358 52.6866 10.7945 52.2966 12.1335C51.9066 13.4595 51.6921 14.1745 51.6531 14.2785C51.5101 14.6295 51.2371 14.805 50.8341 14.805C50.6391 14.805 50.4831 14.7335 50.3661 14.5905C49.9501 12.6665 49.2091 9.917 48.1431 6.342L47.5971 4.5675C47.5711 4.5025 47.5451 4.47 47.5191 4.47C47.4541 4.47 47.4086 4.5155 47.3826 4.6065C47.3306 5.4515 47.3046 7.1155 47.3046 9.5985C47.3046 12.0685 47.3956 13.6285 47.5776 14.2785C47.5906 14.3045 47.5971 14.3435 47.5971 14.3955C47.5971 14.6685 47.3826 14.87 46.9536 15C46.5246 15.117 46.1346 15.1755 45.7836 15.1755C45.4456 15.1755 45.2766 15.0975 45.2766 14.9415C45.2766 14.9285 45.3091 14.8245 45.3741 14.6295C45.5691 13.9665 45.6926 13.0045 45.7446 11.7435C45.8096 10.4825 45.8421 9.0395 45.8421 7.4145ZM65.4457 9.15L65.4067 11.646C65.4067 13.375 65.5952 14.415 65.9722 14.766C66.0242 14.818 66.0502 14.8765 66.0502 14.9415C66.0502 15.1365 65.6277 15.234 64.7827 15.234C63.9507 15.234 63.5087 14.987 63.4567 14.493C63.4437 14.376 63.4372 14.1355 63.4372 13.7715L63.5152 10.6515C63.5152 10.5605 63.4632 10.515 63.3592 10.515C62.7352 10.515 62.1502 10.6905 61.6042 11.0415C61.0582 11.3925 60.7852 11.841 60.7852 12.387C60.7852 12.673 60.8632 12.9135 61.0192 13.1085C61.1752 13.3035 61.3637 13.401 61.5847 13.401C61.8187 13.401 62.0072 13.3555 62.1502 13.2645C62.3062 13.1735 62.3972 13.1215 62.4232 13.1085C62.6442 13.1345 62.7547 13.3685 62.7547 13.8105C62.7547 14.2395 62.5532 14.5905 62.1502 14.8635C61.7472 15.1235 61.3247 15.2535 60.8827 15.2535C60.4407 15.2535 60.0572 15.1755 59.7322 15.0195C59.4202 14.8635 59.1927 14.688 59.0497 14.493C58.9067 14.298 58.7897 14.077 58.6987 13.83C58.6077 13.531 58.5622 13.271 58.5622 13.05C58.5622 12.14 58.8482 11.412 59.4202 10.866C59.9922 10.32 60.7267 9.93 61.6237 9.696C62.8067 9.462 63.4242 9.2475 63.4762 9.0525C63.5152 8.9095 63.5347 8.669 63.5347 8.331C63.5347 7.642 63.1837 7.2975 62.4817 7.2975C62.1827 7.2975 61.9162 7.395 61.6822 7.59C61.4482 7.772 61.3312 8.006 61.3312 8.292L61.4482 8.76C61.4222 8.981 61.1882 9.111 60.7462 9.15L60.5317 9.1695C60.1417 9.1695 59.8297 9.072 59.5957 8.877C59.3747 8.682 59.2642 8.422 59.2642 8.097C59.2642 7.889 59.3292 7.6615 59.4592 7.4145C59.6022 7.1545 59.7777 6.9465 59.9857 6.7905C60.1937 6.6345 60.5122 6.498 60.9412 6.381C61.3832 6.251 61.8057 6.186 62.2087 6.186C62.6117 6.186 62.9237 6.199 63.1447 6.225C63.3657 6.251 63.6647 6.316 64.0417 6.42C64.4317 6.511 64.7502 6.693 64.9972 6.966C65.2572 7.239 65.3937 7.5315 65.4067 7.8435C65.4327 8.1425 65.4457 8.578 65.4457 9.15ZM66.626 15.1365C66.86 13.7325 66.977 12.049 66.977 10.086C66.977 8.123 66.9185 6.849 66.8015 6.264C66.8015 6.095 66.9965 6.0105 67.3865 6.0105C67.9845 6.0105 68.381 6.238 68.576 6.693C68.589 6.732 68.6215 6.7515 68.6735 6.7515C68.7255 6.7515 68.7645 6.7385 68.7905 6.7125C69.1935 6.2965 69.8175 6.0885 70.6625 6.0885C71.5075 6.0885 72.177 6.303 72.671 6.732C73.165 7.161 73.412 7.785 73.412 8.604C73.412 9.098 73.3665 9.8 73.2755 10.71C73.1975 11.62 73.1585 12.296 73.1585 12.738C73.1585 13.791 73.334 14.5515 73.685 15.0195C73.737 15.0845 73.763 15.1495 73.763 15.2145C73.763 15.3835 73.581 15.468 73.217 15.468C71.605 15.468 70.799 14.753 70.799 13.323C70.799 12.777 70.9225 12.0165 71.1695 11.0415C71.4165 10.0665 71.54 9.3255 71.54 8.8185C71.54 7.7785 71.111 7.2585 70.253 7.2585C69.837 7.2585 69.5185 7.382 69.2975 7.629C69.0895 7.876 68.9725 8.162 68.9465 8.487C68.9205 8.799 68.9075 9.397 68.9075 10.281C68.9075 11.633 68.953 12.8095 69.044 13.8105L69.083 14.2395C69.083 14.6035 68.8425 14.883 68.3615 15.078C67.8935 15.286 67.484 15.39 67.133 15.39C66.795 15.39 66.626 15.3055 66.626 15.1365ZM80.9276 9.15L80.8886 11.646C80.8886 13.375 81.0771 14.415 81.4541 14.766C81.5061 14.818 81.5321 14.8765 81.5321 14.9415C81.5321 15.1365 81.1096 15.234 80.2646 15.234C79.4326 15.234 78.9906 14.987 78.9386 14.493C78.9256 14.376 78.9191 14.1355 78.9191 13.7715L78.9971 10.6515C78.9971 10.5605 78.9451 10.515 78.8411 10.515C78.2171 10.515 77.6321 10.6905 77.0861 11.0415C76.5401 11.3925 76.2671 11.841 76.2671 12.387C76.2671 12.673 76.3451 12.9135 76.5011 13.1085C76.6571 13.3035 76.8456 13.401 77.0666 13.401C77.3006 13.401 77.4891 13.3555 77.6321 13.2645C77.7881 13.1735 77.8791 13.1215 77.9051 13.1085C78.1261 13.1345 78.2366 13.3685 78.2366 13.8105C78.2366 14.2395 78.0351 14.5905 77.6321 14.8635C77.2291 15.1235 76.8066 15.2535 76.3646 15.2535C75.9226 15.2535 75.5391 15.1755 75.2141 15.0195C74.9021 14.8635 74.6746 14.688 74.5316 14.493C74.3886 14.298 74.2716 14.077 74.1806 13.83C74.0896 13.531 74.0441 13.271 74.0441 13.05C74.0441 12.14 74.3301 11.412 74.9021 10.866C75.4741 10.32 76.2086 9.93 77.1056 9.696C78.2886 9.462 78.9061 9.2475 78.9581 9.0525C78.9971 8.9095 79.0166 8.669 79.0166 8.331C79.0166 7.642 78.6656 7.2975 77.9636 7.2975C77.6646 7.2975 77.3981 7.395 77.1641 7.59C76.9301 7.772 76.8131 8.006 76.8131 8.292L76.9301 8.76C76.9041 8.981 76.6701 9.111 76.2281 9.15L76.0136 9.1695C75.6236 9.1695 75.3116 9.072 75.0776 8.877C74.8566 8.682 74.7461 8.422 74.7461 8.097C74.7461 7.889 74.8111 7.6615 74.9411 7.4145C75.0841 7.1545 75.2596 6.9465 75.4676 6.7905C75.6756 6.6345 75.9941 6.498 76.4231 6.381C76.8651 6.251 77.2876 6.186 77.6906 6.186C78.0936 6.186 78.4056 6.199 78.6266 6.225C78.8476 6.251 79.1466 6.316 79.5236 6.42C79.9136 6.511 80.2321 6.693 80.4791 6.966C80.7391 7.239 80.8756 7.5315 80.8886 7.8435C80.9146 8.1425 80.9276 8.578 80.9276 9.15ZM83.3949 7.1415C83.6809 6.8425 84.0579 6.5955 84.5259 6.4005C84.9939 6.1925 85.4424 6.0885 85.8714 6.0885C86.3004 6.0885 86.7359 6.186 87.1779 6.381C87.2299 6.381 87.2689 6.368 87.2949 6.342C87.6329 6.004 88.1269 5.835 88.7769 5.835C88.9329 5.835 89.0109 5.9065 89.0109 6.0495C89.0109 6.0625 88.9979 6.121 88.9719 6.225C88.9459 6.329 88.9134 6.485 88.8744 6.693C88.8354 6.888 88.8029 7.1285 88.7769 7.4145C88.6859 8.1555 88.6339 8.9745 88.6209 9.8715C88.6209 10.7685 88.6209 11.6655 88.6209 12.5625L88.6794 16.6575C88.6794 17.9705 88.3414 19.0625 87.6654 19.9335C87.3924 20.2845 86.9764 20.59 86.4174 20.85C85.8714 21.11 85.2279 21.24 84.4869 21.24C84.3179 21.136 84.2334 21.032 84.2334 20.928C84.2334 20.824 84.3049 20.7395 84.4479 20.6745C85.2669 20.2975 85.8519 19.4005 86.2029 17.9835C86.5539 16.5795 86.7294 14.441 86.7294 11.568L86.6904 8.838L86.6319 7.512C86.6319 7.395 86.4499 7.3105 86.0859 7.2585C85.6179 7.2585 85.2214 7.4145 84.8964 7.7265C84.5844 8.0255 84.3699 8.422 84.2529 8.916C84.0449 9.709 83.9409 10.398 83.9409 10.983C83.9409 11.555 84.0319 12.062 84.2139 12.504C84.4089 12.946 84.7404 13.167 85.2084 13.167C85.3384 13.167 85.4554 13.141 85.5594 13.089C85.6764 13.037 85.7544 13.011 85.7934 13.011C85.9234 13.011 85.9884 13.141 85.9884 13.401C85.9884 13.661 85.9689 13.8755 85.9299 14.0445C85.8909 14.2005 85.8129 14.376 85.6959 14.571C85.4359 15 84.9289 15.2145 84.1749 15.2145C83.4209 15.2145 82.8814 14.9415 82.5564 14.3955C82.2184 13.8365 82.0234 13.336 81.9714 12.894C81.8934 12.231 81.8544 11.7955 81.8544 11.5875C81.8544 11.3795 81.8544 11.217 81.8544 11.1C81.8674 10.97 81.8999 10.723 81.9519 10.359C82.0169 9.982 82.0949 9.631 82.1859 9.306C82.2899 8.968 82.4459 8.5975 82.6539 8.1945C82.8619 7.7785 83.1089 7.4275 83.3949 7.1415ZM91.749 10.047L91.7685 10.5345C91.7685 10.6125 91.8205 10.6515 91.9245 10.6515C92.3405 10.6125 92.7045 10.5085 93.0165 10.3395C93.3285 10.1575 93.5625 9.956 93.7185 9.735C94.0305 9.254 94.1995 8.838 94.2255 8.487L94.245 8.253C94.245 7.551 93.9655 7.2 93.4065 7.2C92.9905 7.2 92.6525 7.382 92.3925 7.746C91.9635 8.318 91.749 9.085 91.749 10.047ZM96 12.6405C96 13.1345 95.896 13.57 95.688 13.947C95.493 14.311 95.2655 14.584 95.0055 14.766C94.7585 14.935 94.466 15.0715 94.128 15.1755C93.699 15.3055 93.2895 15.3705 92.8995 15.3705C91.8075 15.3705 91.0015 14.961 90.4815 14.142C89.9615 13.323 89.7015 12.283 89.7015 11.022C89.7015 9.748 90.02 8.617 90.657 7.629C91.307 6.641 92.2755 6.147 93.5625 6.147C94.7325 6.147 95.5255 6.5565 95.9415 7.3755C96.1105 7.6875 96.195 7.9865 96.195 8.2725C96.195 8.5455 96.182 8.7665 96.156 8.9355C96.13 9.0915 96.039 9.332 95.883 9.657C95.727 9.982 95.519 10.2745 95.259 10.5345C94.999 10.7945 94.5895 11.0415 94.0305 11.2755C93.4715 11.5095 92.815 11.6655 92.061 11.7435C91.957 11.7435 91.905 11.789 91.905 11.88C91.905 11.997 91.944 12.1725 92.022 12.4065C92.113 12.6275 92.2105 12.816 92.3145 12.972C92.6005 13.336 93.023 13.518 93.582 13.518C94.141 13.518 94.6155 13.336 95.0055 12.972C95.2135 12.777 95.3825 12.5365 95.5125 12.2505C95.5645 12.1465 95.6295 12.0945 95.7075 12.0945C95.7985 12.0945 95.87 12.166 95.922 12.309C95.974 12.452 96 12.5625 96 12.6405Z" fill="white"/>
</svg>
